<svg width="700" height="400" xmlns="http://www.w3.org/2000/svg">

 <metadata id="imagebot_722">image/svg+xml</metadata>
 <g>
  <title>Layer 6</title>
  <path fill="#00adef" fill-rule="nonzero" stroke-width="0.13333" d="M383.45999,358.31999L383.45999,358.31999L383.45999,358.31999" id="imagebot_704"/>
  <path fill="#2e3192" fill-rule="nonzero" stroke-width="0.13333" d="M381.55199,368.20799L381.55199,368.20799L381.55199,368.20799" id="imagebot_424"/>
  <path fill="#ec008c" fill-rule="nonzero" stroke-width="0.13333" d="M395.33999,322.17599L395.33999,322.17599L395.33999,322.17599" id="imagebot_328"/>
  <path fill="#231f20" fill-rule="nonzero" stroke-width="0.13333" d="M 600.9649676637197 252.7541711158299 L 600.9698062393211 252.47245311572073 L 600.9649676637197 252.7541711158299 M 572.2947943658374 224.36786091990712 L 572.391565877869 224.61085418661838 L 572.5851089019322 225.09471174677608 C 574.3786075915835 224.37860255774262 577.2731402879593 225.563521336813 580.9504577451588 228.5247296049786 C 589.9695626664995 235.78259300734524 600.2381007082654 250.80153167464255 599.941334738035 252.57353096003771 C 599.941334738035 252.57836953563927 599.8144027714202 252.87244203211782 598.6080329738497 253.3132846551776 C 591.5910338649295 255.89171320750233 563.269238010361 257.87875492121697 557.5683153364848 254.81217860503432 C 556.8049010066535 254.39712558993097 556.3296399824809 253.77564281107897 556.1210489882973 252.91115063693042 C 554.9232273409558 247.94140125079392 562.5079687823795 237.0126718253636 568.05189580657 228.95697569205285 C 568.9723057860875 227.62583515830278 569.826040193815 226.787148720696 570.589454523647 225.34202747435808 L 572.391565877869 225.34202747435808 L 572.198022853806 224.49688960261582 L 572.2947943658374 224.36786091990712 M 534.5194862724186 104.0120507910442 L 534.5194862724186 104.01366364957812 C 534.5194862724186 104.03092123589039 533.7410239724659 104.83514088662862 532.4700914477847 106.23295699216841 C 532.0916019356443 106.65013898053648 531.6421466480135 107.13830287297962 531.175498288412 107.65872393610002 L 531.1674339957428 107.65872393610002 C 531.6297760230589 107.13830287297962 532.0964405112458 106.65013898053648 532.4706236911011 106.23295699216841 C 533.7544590840531 104.82009291650775 534.5200185157346 104.0115024191427 534.5200185157346 104.0115024191427 M 478.62695439674377 63.48359318032742 C 473.4959030286362 70.87909792997357 467.156304503937 81.12181410661218 461.72203573146334 92.01183492722987 L 461.5112996354296 92.43979081060414 C 461.36081993422016 92.75160475095507 461.2145336651992 93.06557992174149 461.0596992459487 93.3773938620925 L 460.97147588414674 93.34303997532132 C 461.12631030339725 93.04411277465584 461.3650133664083 92.74089537029032 461.51125124967336 92.43983919636013 C 452.03623960656654 88.2248914754844 442.37629760396715 84.6529581948876 432.7335486733389 81.73045853153471 C 432.68629191829694 76.26393258838418 433.0432175118399 70.77592336956262 433.64750721872076 65.62767892948386 C 434.29479573411476 60.15686278263329 435.303380689678 55.073132683908945 436.4538810676359 50.793670621678814 C 437.4538533586288 47.05400005356077 438.5290977573965 43.94010246799469 439.5333602520893 41.63479537979366 C 439.67964652111067 41.297159574315565 439.89464056367405 40.97458786754373 439.89464056367405 40.67137046317812 L 440.04092683269505 40.718627218220256 C 439.907543431945 41.00678052387951 439.7678214971567 41.31215915868045 439.63018014987705 41.63473086545228 C 441.0623985279439 41.99170484475139 442.4946169060112 42.342227389915024 443.91393241580715 42.729313438041174 C 457.49634637275227 46.44964583233829 469.9304211821746 52.722584913833145 481.00108215858455 60.12883130131481 C 480.24840946658844 61.169673427555594 479.45488306792976 62.2836103025508 478.62695439674377 63.48357705174212 M 417.98561862548576 186.8328526194477 L 436.62597307319874 182.51684318284035 C 437.03455852558136 184.26302060310837 437.3958388371657 186.0221170202327 437.66894417270436 187.81347060803412 L 437.6387837181211 187.81347060803412 L 418.1575977309515 190.78758174447057 C 418.0651809369611 189.4564250821352 418.05227806869016 188.138187416656 417.86513809300664 186.8328526194477 C 417.6758852726436 185.51459882538316 417.4909549131513 184.21357036046032 417.2049305807568 182.9318800693583 C 416.914616044662 181.61364240387917 416.617850074432 180.31690414265628 416.23507035859126 179.04166528568982 C 415.84798431046465 177.74492702446702 415.41573822339035 176.47399449978593 414.931880663233 175.22241627751112 C 414.44587800122486 173.95362885468003 413.9319083722401 172.6999055305552 413.35342440190067 171.48058447895767 C 412.7727953297115 170.25695709507468 412.1384096825885 169.06774811230426 411.47176686478866 167.90003853379008 C 410.787914846432 166.70221688644887 410.0653542232633 165.5280558737993 409.2911821270108 164.386152031827 C 408.5234614648936 163.25286085442542 407.7127258656788 162.14966561726573 406.858991457951 161.08087265263325 C 405.99019295151714 159.99058028374432 405.0740893042851 158.9389965196681 404.1214221540904 157.91966992626905 C 403.18381910260206 156.90893986885547 402.2139588804365 155.93048311070447 401.19892249073763 155.0014765952015 C 400.1602415949319 154.04666434315683 399.08070699246394 153.1456086660457 397.9689152193189 152.2789713900471 L 406.85468512566547 139.17610866097448 C 408.3428213091016 140.18682258980274 409.7750396871685 141.26206698857072 411.18145232869387 142.3760199921512 L 401.19892249073763 155.0014765952015 C 402.2139588804365 155.93048311070447 403.18381910260206 156.90893986885547 404.1257284863756 157.91966992626905 L 415.2436946035838 145.84044012288092 C 416.5619483976484 147.06190627632859 417.83933235646475 148.33714513329505 419.06939504589803 149.65107646648883 L 406.86328166165123 161.08087265263325 C 407.7127258656788 162.14966561726573 408.5234614648936 163.25286085442542 409.29547233071105 164.386152031827 L 422.58542664971094 153.70043200169326 C 423.7101374197126 155.1025383109331 424.7896720221805 156.54120812313556 425.81114371742945 158.0250379742861 L 411.4760570684885 167.90003853379008 C 412.142716014874 169.06774811230426 412.7814079942822 170.25695709507468 413.3620370664714 171.48058447895767 L 428.6798868058491 162.54534820137738 C 429.5830875848102 164.0915472920323 430.44327342667333 165.6721486552143 431.2325096216321 167.29145862320902 L 414.94908986378914 175.22241627751112 C 415.4329474239468 176.47399449978593 415.87809637929206 177.74492702446702 416.2630211969829 179.04166528568982 L 433.41309435941 172.25261147336002 C 434.0775920753597 173.90846881573205 434.6947685219266 175.59014802323105 435.2323987856031 177.30622950325724 L 417.267299820261 182.9318800693583 C 417.54901782037 184.21357036046032 417.7920110870816 185.51459882538316 417.98555411114455 186.8328526194477 M 418.3898493598269 197.9508187366557 C 418.1877097997786 197.9508187366557 418.0737290871906 196.11646634034162 418.0737290871906 194.79392234257702 L 438.0258697662473 193.217611183095 L 438.2860722335147 193.0929372184277 C 438.4107461981822 194.86063017153745 438.4989695599842 196.50789097792386 438.5032758922697 197.95086712241175 L 418.3898493598269 197.9508187366557 z M 448.9158744582796 197.64545623044015 L 448.9158744582796 197.64545623044015 M 438.2645728292583 204.17214634506698 C 438.12909271241443 205.96995136700394 437.95704909260746 207.7462408560991 437.69254029305455 209.50319217137334 L 417.24580041600467 206.4495025948763 C 417.52750228752836 205.1979243726015 417.77265678467506 203.93774961434121 417.9619096050381 202.65605932323928 L 417.98561862548576 202.40016318825718 L 438.28613674785623 204.04527889279368 z M 436.6904229002119 215.3116279951167 C 436.2904339838147 216.34816378907203 435.84097869618427 218.56100569752695 435.3162674293637 220.27063574341778 L 415.05876424409155 213.92456965599771 C 415.50820340313663 212.72890923909185 415.92325641824016 211.7031312115574 416.28882693352443 210.47305239353895 z M 431.35508687020547 230.08755726711752 L 411.8674494489003 220.70717203419207 C 412.48464202405216 219.59107392876143 413.0631098658059 218.44917008678914 413.5964337971972 217.2857668405604 L 433.51846240742685 225.0963084767246 C 432.8539646914768 226.7865842202091 432.14000060429345 228.45750566128729 431.35508687020547 230.08755726711752 M 425.96168793298006 239.37333221844676 L 407.80519104542515 226.99517521439319 C 408.5557186355711 225.990896591115 409.27397292645435 224.96297346173043 409.9556798429609 223.90493826351886 L 428.8261246891142 234.80355562012195 C 427.9229239101531 236.36696391133304 426.97456309224356 237.89164746914625 425.96168793298006 239.37333221844676 M 419.24574499799013 247.7730994627857 L 402.9322131713201 232.62727721462963 C 403.80530188145417 231.74988217221022 404.646149549496 230.8337785249782 405.4611753524114 229.89832057533977 L 422.74026106896144 243.71084105931044 C 421.6241629635308 245.1064959344149 420.4607597173023 246.46345833329195 419.24574499799013 247.7730994627857 M 411.3835918887422 255.07181657181496 L 397.33022323991065 237.52177062157628 C 398.32158286633256 236.76909792958025 399.28284655251264 235.97557153092146 400.22261083443647 235.15193306343556 L 415.4781074628949 251.54073699788094 C 414.15556346513046 252.76650948361396 412.7900045302676 253.94712193039896 411.3835918887422 255.07181657181496 M 402.4956607519602 261.1555189615321 L 391.1346852394555 241.5517557257891 C 392.2228325064945 240.9474821474934 393.28086770470605 240.29803240166427 394.31740349866135 239.61632548515792 L 407.08263042225605 258.27387300484185 C 405.5923491369701 259.28890939454084 404.0590690431715 260.24801185028554 402.4956607519602 261.1555189615321 M 392.8314124170756 265.83280870972396 L 384.4682086756992 244.64415390709874 C 385.6230153859426 244.20760148773908 386.75846779377946 243.71514739159588 387.8745658992101 243.19903266076082 L 397.77537219525595 263.6823360407734 C 396.1625136613967 264.4651046730113 394.5066401904391 265.170456095624 392.8314124170756 265.83280870972396 M 382.5112790308117 269.03057493905067 L 377.4340003662229 246.75591797123667 C 378.6425636513998 246.48710283939843 379.83177263417014 246.17743400089742 381.00378854496967 245.82476635388377 L 387.758440084772 267.6392102676463 C 386.0402135028959 268.17253419903756 384.2832621876217 268.62627969036816 382.5112790308117 269.03057493905067 M 371.87286414147604 270.6305306046391 L 370.1675242992852 247.86125831024646 C 371.4019094495893 247.7559386479855 372.6233756030368 247.63116791180613 373.83410011864913 247.45052775601386 L 377.26195674641593 270.04559520016426 C 375.4856672573208 270.3101039997173 373.687862235384 270.4950504877949 371.87286414147604 270.6305306046391 M 362.81719571717264 247.93222408573624 C 363.87523091538424 247.9946417109966 364.9461689818667 248.03754374799732 366.0214133806348 248.03754374799732 L 366.5052709407925 248.34076115236283 L 366.52672195929296 271.47774906389 L 366.45365946770914 271.47774906389 C 364.67735385002834 271.47774906389 362.92256376518986 271.0799052493429 361.1742251144863 270.9487314647842 z M 355.5206237099934 246.97096039955613 C 356.7184453573346 247.21396979485277 357.9356051784969 247.4075128189158 359.1678290983652 247.5709437741518 L 355.8238411143589 270.06280440072055 C 354.03034242470727 269.79829560116764 352.26695580388304 269.4542083615541 350.5229073568798 269.05852577744247 z M 348.3896438884854 244.94521008102893 C 349.55304713471423 245.36671453026776 350.7336595814992 245.74089771012305 351.929319998405 246.08066248886587 L 345.28650406934025 267.677918872459 C 343.55966482289307 267.14459494106774 341.8715341812587 266.5381601323366 340.20706417431603 265.88872651509286 z M 341.6156380462765 241.92164870194435 C 342.7059304151654 242.50656797783375 343.824173622446 243.05279477749585 344.9617711321329 243.56031297234537 L 335.25021765645033 263.74254404984237 C 333.62231115247016 262.95546908531907 332.04170978928806 262.09528324345587 330.4869141626477 261.19208246449466 z M 335.2695719588567 237.9239046398234 C 336.29104365410564 238.66796466724875 337.32972454991096 239.3862350867176 338.3963724126936 240.05932933865307 L 325.9537010672856 258.3577416486024 C 324.4591134497141 257.3362699533534 323.0097019996762 256.2567353508854 321.5968379240154 255.1277343771839 z M 329.59016481782203 233.08963537053108 C 330.4869141626477 233.9670304129505 331.4116143458653 234.82076482067822 332.36642659790994 235.6315004198933 L 317.5496274906613 251.6547015818834 C 316.2292447233318 250.43109032658577 314.95831219865073 249.15799657146934 313.7325397129177 247.83975890599012 z M 324.5666427281666 227.41666353504658 C 325.3451211567044 228.42739359246016 326.1493891931986 229.42305955116746 326.99452706494105 230.3778718032122 L 310.24876527978194 243.81191890362743 C 309.12190940793033 242.40550626210214 308.03592337132693 240.95607868347878 307.0144355474924 239.46149106590752 z M 306.87466522694825 227.61236778954503 C 307.2746541433454 227.6338188080454 307.6810944938779 227.64672167631622 308.0853736139751 227.64672167631622 C 313.046526464126 227.64672167631622 317.66791453553435 225.95859103468175 321.55596808876754 223.05544567373516 C 321.824783220606 223.4876917608094 322.0914371220088 223.9263892820191 322.3710100202679 224.35003883310796 L 304.15645022549387 234.9346971475101 C 303.24895924283254 233.37559518858433 302.38875727238417 231.79713892725226 301.59739210416086 230.16708732142212 z M 306.8795038025497 158.33041660908702 L 320.685572852385 167.69789897374156 C 319.99312429804314 168.8978657229328 319.33938434851405 170.11933187638047 318.7372397434831 171.3752164309406 L 304.0301311451221 162.90017707882646 C 304.9290255917978 161.3410751199007 305.8687898737216 159.81424646023748 306.8795038025497 158.33041660908702 M 397.5157019713045 133.80206402615548 C 399.14791480757 134.5826875565433 400.7371288353228 135.4407282965565 402.29406956381314 136.3374776413822 L 394.55880003542444 149.829571520431 C 393.37388125635397 149.04680288819313 392.1567214351916 148.3048879626179 390.9072883147669 147.6210359442615 z M 387.49447965712073 129.89249494008067 C 389.21486746943225 130.41935130875115 390.9029819824813 131.01933468334673 392.5717583217095 131.67309076146125 L 387.10739360899447 145.74366861084937 C 385.80420391363623 145.16518464051003 384.4773535835862 144.6404733736897 383.1247136455796 144.1652123495174 z M 376.93778830969586 127.52265738193984 C 378.7269806670616 127.7850210796428 380.49681872202143 128.1226407565355 382.2430122708749 128.5161782387972 L 379.0129888708712 142.9050375912571 C 377.6366882981728 142.55020871380802 376.2324207584976 142.25558784542798 374.8174115809868 142.01257845013143 z M 366.24560071684147 126.75709795025827 L 366.4542078396107 126.75225937465672 C 368.1853372897578 126.75225937465672 369.8949673356485 126.83403130232338 371.5916945132683 126.95439893470521 L 370.57451302171927 141.46583553573845 C 369.1595038442088 141.3432582871652 367.73159179842713 141.26798617939 366.28647055208927 141.26153474525452 z M 355.5125755459094 127.5828815195942 C 357.2867199331546 127.31192128590584 359.0845088265063 127.12911989967824 360.89736181856375 126.9871883486986 L 362.0027182861588 141.42549794380662 C 360.557597039821 141.53726904020306 359.1253786617541 141.7007645097804 357.7146596879436 141.92441960267067 z M 345.01393097711787 130.00862075451855 C 346.7343187894298 129.4731517212772 348.4912539761185 129.01939010136132 350.2632532615136 128.60865954712872 L 353.52337260175943 142.78891177681922 C 352.11912119066943 143.13943432198286 350.73851428568594 143.54587467251542 349.3815518868089 144.00607159798145 z M 334.9927086629343 133.9977521520686 C 336.612018630929 133.20637085525985 338.27218230558645 132.49242289666174 339.96031294722087 131.82361884842632 L 345.3988719233942 145.53506148808 C 344.08063425791505 146.10709402428384 342.79034743082775 146.73933456955666 341.5237051098465 147.4188802556276 z M 325.7219978103114 139.41265049355027 C 327.20582766146185 138.39332390015122 328.7283661174249 137.43422144440652 330.2874680763507 136.52456923130987 L 337.89370892203095 149.56720782272814 C 336.6937421728396 150.343541149416 335.51958116019017 151.16071205418106 334.3841287523533 152.02736545876505 z M 313.5696410009981 149.93710079888348 L 325.37792669928314 160.83141182320122 C 324.5026767587137 161.91741398839 323.6747480875277 163.04425373165603 322.88551189256907 164.19906044189926 L 310.07512493002645 154.01869737617974 C 311.1955132391573 152.61444596508977 312.35677138353583 151.25319336251258 313.5696410009981 149.93710079888348 M 328.1391405092502 157.68527319554326 L 317.3716969372059 146.12430322484013 C 318.6813380666995 144.90282094280718 320.03613923514126 143.73296626244306 321.4317941102457 142.6125618247271 L 331.1648631187701 154.72190369694235 C 330.11756955839405 155.67026451485154 329.1090007314157 156.6573339375734 328.1391405092502 157.68527319554326 M 301.49686263174544 167.65057770435814 L 306.43651607764 170.01825403206345 C 304.10969345659726 170.1946039841557 301.8624492756152 170.74081465523247 299.74852398104196 171.6117582635164 C 300.29689588255394 170.27416629563095 300.8710735206078 168.94947719601635 301.49686263174544 167.65057770435814 M 284.1855197445179 198.80026294068338 C 284.1855197445179 183.46304277031422 294.9056420471786 170.98596915237906 308.0859219858765 170.98596915237906 C 321.2662019245744 170.98596915237906 331.9906466881059 183.46304277031422 331.9906466881059 198.80026294068338 C 331.9906466881059 214.1353218806171 321.2662019245744 226.61023426811695 308.0859219858765 226.61023426811695 C 294.9056420471786 226.61023426811695 284.1855197445179 214.1353218806171 284.1855197445179 198.80026294068338 M 530.4582600984047 108.45223420617342 C 529.4969964122246 109.54251044647695 528.408849145186 110.78549213276625 527.2024309618591 112.19404987614156 C 525.0648611611794 114.69720632069107 522.6133161897133 117.65841458885667 520.0800476763368 120.94435579422954 C 519.0542696488023 122.26904489384414 518.0177338548472 123.65824833481314 516.9833592913269 125.07972507504459 C 510.3813970689249 120.228246605196 503.76651584966675 115.70793637810472 497.11724848646617 111.52526195649145 C 497.60539625032413 110.3511009438419 498.1043179091882 109.18768156902787 498.60752977175247 108.06084182576183 C 500.2547905781386 104.36847639844181 501.91495425279606 100.95566774079565 503.38373613382566 98.04821604756354 C 504.8589694489909 95.14076435433151 506.13419217737186 92.73654065224889 507.04600562090405 91.05916777703524 C 507.9578029358505 89.38394000367161 508.48251420267115 88.4226763174915 508.48251420267115 88.4226763174915 C 508.48251420267115 88.4226763174915 507.74490560938136 89.23125068627124 506.4632153182791 90.64627599236722 C 505.18154115576243 92.06559150216346 503.3579303972842 94.10638979081149 501.2203605966043 96.60523990307566 C 499.0870809996246 99.11055757806066 496.6355360281586 102.06960461579085 494.09367097879635 105.35554582116362 C 493.3582074873567 106.30819684277294 492.6141474599313 107.29742749593017 491.872232534356 108.30168999062296 C 484.34986033243644 103.77494445798162 476.79306972940435 99.68257398567913 469.1868288837243 96.00311142663006 C 469.2792456777143 95.69774892041441 469.35887250353085 95.38808008191351 469.45133768327713 95.07625001297711 C 472.7781325953127 83.86796381787303 477.1629627055598 72.83601144627569 480.88327897127147 64.77386387882945 C 481.46390804346066 63.49864115044829 482.0294891455291 62.30941603909257 482.5714096129059 61.191172831811926 C 504.80735797590717 76.46171743039127 521.3617379674388 96.15149441174508 530.4582600984047 108.45223420617342 M 391.39974241091033 35.718765763256535 C 407.444459105742 35.718765763256535 423.33005117762326 37.63913190518145 438.71456036020504 41.40031800614122 C 437.3275020210863 43.5185496329999 435.6694834482789 46.389437823269326 434.04372204614873 49.89901799294714 C 432.1082918055175 54.04512891159772 430.20082853186364 59.05360303113223 428.55355159689185 64.55667634865996 C 427.151445287652 69.25761060295822 425.94502710432516 74.32414762971167 425.01816569067233 79.5153908783031 C 418.7129694385004 77.84017923352476 412.3755160156513 76.42731515786409 405.9907413234184 75.28970151959184 C 406.04235279650214 67.02326929024697 406.377827371545 59.163277411434635 406.717608278873 52.776357617352026 C 406.96060154558427 48.12916380940197 407.21220747686624 44.25401312443975 407.39284763265863 41.54010445527075 C 407.5734877884506 38.82835701653717 407.67887196505313 37.275706491746874 407.67887196505313 37.275706491746874 C 407.67887196505313 37.275706491746874 407.3175916534684 38.78748718128922 406.687496210046 41.434736407253695 C 406.05740076662283 44.08411460648299 405.1628126522328 47.86250990799905 404.1434860588337 52.41936750946763 C 402.76502425569987 58.578342006959936 401.14356918585526 66.14801934967758 399.71135080778834 74.26822982434275 C 391.70941124941095 73.06826307515144 383.64297347826493 72.27904300877809 375.4862156292224 71.91560146675822 C 376.06039326727625 67.12218590412856 376.4840266897799 62.305125835392516 376.5141387586069 57.711704730961344 C 376.56575023169034 52.38711033879038 376.05608693499073 47.35929804543494 374.93139229357473 43.22178366276976 C 374.3808591616273 41.15087330529449 373.6841042750001 39.31221457669496 372.94004424757503 37.753112617769204 C 372.7465012235117 37.348817369086774 372.5529581994484 36.963892551395865 372.35296374125016 36.598305907526054 C 378.59795198435296 36.037031137743014 384.9483082754733 35.718765763256535 391.39974241091033 35.718765763256535 M 371.03256484533546 36.72733459023477 C 371.19601192915667 37.21978868637797 371.3572977825428 37.731613213512865 371.50351953722225 38.28858165101056 C 371.9142662200402 39.86487668190721 372.23038649267687 41.675584572114936 372.36801171137085 43.66048118397955 C 372.6755354480217 47.636709713258774 372.2647887652041 52.29464515904426 371.27771934248216 57.19773510197642 C 370.3530191592647 61.87716995201825 368.92080078119744 66.78671132908578 367.32515144789465 71.69625270615342 C 366.4090478006626 71.68818841348413 365.4929441534306 71.66399553547616 364.572534173913 71.66399553547616 C 356.92543962157004 71.66399553547616 349.48693606341124 72.04463014946703 342.26132983172175 72.68762846116066 C 342.12375299878363 72.03172728119608 341.9839181638981 71.38229366395237 341.84198661291833 70.72424738213778 C 341.23769690603723 67.94796947346448 340.6291169954561 65.1717076933765 339.96031294722087 62.43199328766582 C 339.3130244318271 59.69658521424057 338.58615747637265 57.00633717976333 337.83993621851215 54.42361842373846 C 337.4657530386568 53.13333159665104 337.0464098198533 51.86670540425538 336.6636301040124 50.630175152101536 C 336.22923891508833 49.40225756451849 335.8335402023912 48.20012958489184 335.3926975793313 47.038871440513134 C 334.9023885850383 45.755036047561184 334.4013218243241 44.52711845997814 333.89381975806 43.34650601319312 C 345.71499219603066 40.299283999416865 358.13830923903214 37.96815504608866 371.03256484533546 36.72733459023477 M 330.86809714854 44.140032411851905 C 331.16055678648473 45.39591696641205 331.42721068788757 46.705558095905786 331.67452641546964 48.06895580033301 C 331.88526251150375 49.230213944711714 332.04654836488953 50.44093846032377 332.2358011852526 51.662404613771436 C 332.38208745427363 52.90322506962542 332.5519214578891 54.15480329190012 332.67878891016244 55.445090118987544 C 332.9282497395945 58.02351867131236 333.1390019642137 60.6858158673978 333.27017574877266 63.41691760853769 C 333.4206554499817 66.1394228136921 333.5067337099337 68.92858746205093 333.58844112325903 71.7220584426951 C 333.6056987095714 72.35000878426787 333.6186015778421 72.9736366649699 333.63569787830113 73.60158700654267 C 326.90040064090505 74.42091914174323 320.3822909336781 75.44453593884234 314.10290041804785 76.62300328377724 C 312.9953988486027 72.61235635338544 311.7782390274405 68.61032208756444 310.36537495177987 64.91150522610904 C 309.5761387568212 62.77391929684396 308.68369574428095 60.73742734048127 307.7826400671696 58.84715713879827 C 306.8794392882085 56.956886937115186 305.92893336844924 55.2214511546826 304.9848788828254 53.662349195756924 C 304.7784329904913 53.3311809529996 304.57843853229275 53.01289944992782 304.37628284365894 52.69677917729137 C 312.7975656208395 49.55064054963352 321.6424818205237 46.63673742226603 330.86803263419864 44.140032411851905 M 302.18710156989584 53.52472397706272 C 302.3375812711049 53.926857995309824 302.486012641976 54.34405611226319 302.6365568575263 54.76768953476663 C 303.18921896273855 56.41280523930313 303.7053336935734 58.21061026124001 304.1504826489186 60.135282735450275 C 304.58918017012826 62.06211644009586 304.9848788828254 64.10076962689398 305.27733852077006 66.24264575985912 C 305.8278555241322 70.01242839680428 306.1267827247977 74.05102616558788 306.3310673866963 78.16920237443206 C 299.1119125891423 79.68528939625975 292.25403810317283 81.34975940320257 285.8069103000212 83.0335837125516 C 284.76177797008035 79.31325131825449 283.61987412810805 75.62303099278449 282.30808789676416 72.18656170044659 C 281.5145614981055 70.04468556748154 280.62640868926525 68.01033871296886 279.7275142425895 66.12006851128578 C 279.3038646915006 65.23836713658093 278.8673122721411 64.38893906113863 278.43077598136654 63.57389712963821 C 285.86711830909013 60.13099253175022 293.8109949602485 56.7203289759541 302.18710156989584 53.52472397706272 M 275.46526138091576 64.95881036690707 C 275.6846101415206 65.75448186741588 275.8996525698399 66.56307236478092 276.09319559390315 67.41035533837321 C 276.52974801326263 69.33933414486881 276.9275918278097 71.37798733166693 277.2179063639045 73.51771836278205 C 277.7512141667105 77.167068853004 278.04798013694057 81.07663793907878 278.2501358255744 85.06362423477891 C 274.1169116466094 86.19693154076573 270.15142475516575 87.31302964619634 266.41604439074763 88.36891974255799 C 262.13229212481735 89.5839344618702 258.0980006883193 90.72798340569261 254.29379965026135 91.75376143322704 C 252.5626702001143 89.73876888112069 250.82937951953184 87.6377464548183 249.11115293765533 85.508773190124 C 247.7563517692137 83.82280377892494 246.40585693305724 82.12177026901962 245.06824883658638 80.43365575597045 C 253.79703922183273 75.76710764561417 264.0010629222441 70.36511217240334 275.46526138091576 64.95881036690707 M 238.84477612632526 83.76259576985598 C 239.93290726477858 85.85715063343761 241.04255393607392 87.97538226029639 242.17800634391074 90.09574286041979 C 242.91992126948605 91.48065609768865 243.67259396148202 92.8634081045222 244.4317180876136 94.23972480580565 C 238.36951510215295 95.62033171078916 233.0922419793652 96.46330835209609 228.61065648567194 96.46330835209609 C 224.03442845321166 96.46330835209609 220.52484828353406 95.56226880357023 217.92708155738822 93.70854597626445 C 222.8753315392684 92.15591158005954 230.01706912719735 88.47428779057505 238.84477612632526 83.76259576985598 M 432.68240492923024 303.07263164131643 C 432.08672788692 303.07263164131643 431.52330801528694 303.5629406356096 431.52330801528694 303.5629406356096 L 431.47814797633885 303.6682602978706 C 413.5689668163657 306.58859873078825 393.7931599608158 308.397161519146 372.7636459097266 308.397161519146 C 352.77494172770724 308.397161519146 332.4959391381788 306.7799966530014 312.50294475245954 303.5972945223808 C 279.0845159308958 298.2748613606453 251.02077744174483 285.931106629119 229.10525568366518 266.9122787978506 C 208.0198238272071 248.6203179220367 201.3619437994362 231.67454555009363 200.67164034694426 229.80148454896693 C 196.11478274547588 217.43623041318418 200.3017634993745 206.16773620901105 200.64147989236113 205.29248626844168 C 212.86480247716423 188.3467138964987 264.310683374989 147.06829319612268 297.9334129870367 136.17396604321956 C 282.83489587967864 152.68534722623826 273.62010283242455 174.6696735293722 273.62010283242455 198.80448863004204 C 273.62010283242455 250.07403570436 315.1845478651953 291.63848073713064 366.45409493951325 291.63848073713064 C 417.7257871156813 291.63848073713064 459.2902160198665 250.07403570436 459.2902160198665 198.80448863004204 C 459.2902160198665 178.368506519413 452.68394746517896 159.4787073708534 441.49501557248124 144.14148720048425 C 464.0406327739835 147.3328019956756 522.8303908197855 173.43530450765368 532.2645487562298 192.79820344995022 C 538.6278079156208 205.85590614007472 540.1008800003506 223.795199368875 536.2085201148319 240.77968034563068 C 532.1054080046938 258.67165230504753 522.6712661968348 272.7508266904211 510.31460859703776 279.404416514492 C 507.92112653279077 280.69470334157944 470.7372214065672 299.8339471909856 432.6823565434743 303.07256712697506 M 539.3589650747753 119.66260098878624 C 539.3955769634938 119.78517823735947 539.9331427128292 121.51846891794204 539.8707896019102 123.72700449411153 C 539.9288525091292 121.53996832219839 539.3955285777375 119.8324833781576 539.3589650747753 119.70990612958435 L 539.3117083197329 119.58087744687555 C 539.2149368077015 119.41959159348967 536.6580237882185 115.17025772867206 531.9248162346577 108.71022705724955 C 531.7527726148511 109.03494386587141 531.5764387913442 109.36396700677871 531.3872020995665 109.71663465379238 C 535.6666480332113 115.58529461519001 538.073032965729 119.52066943780659 538.38484690608 120.03463906679151 C 538.544036043372 120.57439830373292 539.7654538110639 125.122659369216 537.2967157676268 128.50751718847036 C 535.4064455659437 131.10099371091604 531.8366412586116 132.42998914281608 526.6733488484122 132.4579399812079 C 525.2131796319533 131.3095847051 523.7551555173445 130.18058373139857 522.2885187381647 129.06234052411793 C 523.0368850978757 127.21292402909756 523.808912092278 125.39578083333967 524.591680724516 123.64744218263625 C 526.2325062253524 119.95506062673094 527.8926699000095 116.54225196908479 529.3614517810395 113.63481640443806 C 530.0926089401936 112.1961465922356 530.7764609585499 110.88434423230646 531.3872020995665 109.71663465379238 C 531.5764387913442 109.36396700677871 531.7527726148511 109.02634732988592 531.9248162346577 108.69732418897871 C 536.6580237882185 115.15735486040113 539.2149368077015 119.39809218923334 539.3117083197329 119.5593780426192 z M 443.3594800376224 15.207430901925562 C 365.40034994500155 -3.131835114686467 292.5077568791343 29.01780628404621 235.01686606781968 67.75221683320997 C 233.27068864755157 65.59313149968864 231.6019123083234 63.57168751344682 230.04497157983306 61.763140853674415 C 227.33106291066406 58.59548669317484 224.9978049840713 56.023509574985496 223.29891657601593 54.283767460267555 C 222.47098790482997 53.402082214148 221.7785393504881 52.744035932333496 221.32477773057212 52.283822878282066 C 220.8645808051062 51.82577105466605 220.61942630795951 51.58061655751947 220.61942630795951 51.58061655751947 C 220.61942630795951 51.58061655751947 220.81511443387274 51.866640889914 221.17855597589252 52.40425502500538 C 221.53767505704164 52.94403039053199 222.09249839268932 53.70958982221367 222.74194813851832 54.733222747898076 C 224.0730886722684 56.74176386586906 225.87089369420536 59.68147272977833 227.9181434169889 63.2598735730958 C 229.09661076192387 65.32002616415025 230.35033408604852 67.60168874624492 231.6578301136923 70.03171818486932 C 222.9569905668378 75.99500455644848 214.62389889428857 82.08730348215107 206.68647367726552 88.15810300359722 C 202.6930359474302 84.04639435747382 198.98776765183916 80.15401834337001 195.80290429078337 76.85304529646157 C 189.56867381410123 70.34569335565565 185.28706665002107 66.13076176336523 185.28706665002107 66.13076176336523 C 185.28706665002107 66.13076176336523 188.77300231359243 71.01233617345575 193.78146030454155 78.48740323457717 C 196.32977678803925 82.2550407696724 199.27163075379846 86.67857948473213 202.4844449532462 91.39886804143669 C 194.08467770890707 97.93417082063432 186.16017148874045 104.40495925847765 178.76037653539404 110.62199666318898 C 178.38619335553875 110.31016659425258 178.02060671166888 109.99190121976619 177.64427842996363 109.68868381540057 C 176.31097666577813 108.56613427583459 174.9174668925237 107.52100194589374 173.575568592353 106.46941818181753 C 172.1670108489775 105.48234875909563 170.84661195306313 104.43721642915489 169.43374787740228 103.54907974889997 C 168.0466895382833 102.62221833524703 166.68113060342083 101.72977532270666 165.28333062646615 100.94270035818334 C 164.59086594353917 100.54485654363629 163.92636822758908 100.12120699254756 163.22961334096186 99.75778157911297 C 162.53501968477005 99.39864636937854 161.85116766641377 99.04167239007953 161.17376708219277 98.6911498449159 C 158.46845494900936 97.30409150579692 155.80831898335933 96.20518647233729 153.32237173936602 95.32133999578241 C 150.82350549851648 94.4697506899047 148.50960187433014 93.78805990198373 146.42148231629858 93.37516811731581 C 144.3570233929586 92.85689215604545 142.49686526010274 92.69991263494492 141.00872907666695 92.45906447008369 C 139.50339982125996 92.2784243142915 138.30988450620413 92.2590700118852 137.5056003411246 92.19024933824535 C 136.69917107419496 92.14073458125593 136.271231319406 92.1128321286201 136.271231319406 92.1128321286201 C 136.271231319406 92.1128321286201 136.69271964005952 92.20315220651628 137.47979460458274 92.37519582632306 C 138.26686956910612 92.56657761995076 139.43027281533477 92.76228187444922 140.87110385797257 93.16227079084638 C 142.3033222360396 93.62461281816245 144.066708856864 94.03966583326579 145.98278479508878 94.84824020204543 C 147.9289728021406 95.54499508867266 150.04504319856414 96.53851594552994 152.28369084356066 97.704080422194 C 154.5094356202864 98.89974083909988 156.85130621145024 100.31045981291052 159.18672536847822 101.99428412225964 C 159.76735444066776 102.41791754476309 160.3544349469924 102.84371219770195 160.95225709115255 103.28026461706163 C 161.54578903161283 103.71465580598588 162.1092250318314 104.21357746484995 162.70059574185606 104.68022582445145 C 163.88765962277648 105.60923233995442 165.03817612931965 106.63931669977428 166.195127941413 107.69304556570053 C 167.37788549004804 108.71237215909959 168.47248419122215 109.89082337544919 169.63374233560086 110.99401861260895 C 170.743389006896 112.17463105939387 171.88314774701837 113.33374410192246 172.9712788854717 114.57241945592642 L 173.4400884755087 115.12079135743853 C 168.85526390706303 119.02176390752793 164.47904646138664 122.80659451459405 160.34582228242152 126.40649476216794 C 158.5738391256119 127.94838752053741 156.76743756768934 129.40426653329607 154.93306904278987 130.79132487241503 C 154.51372582398648 130.4579953992224 154.10083403931856 130.1203757223296 153.67934571866522 129.79565891370774 C 150.7718940254331 127.47528772680045 147.7741383828901 125.3527658962416 144.8301231866957 123.37648194894788 C 141.83881897828815 121.45824478028779 138.9120129826498 119.67335875520705 135.99810985528222 118.21962484429835 C 135.2755492321135 117.85189309857842 134.5637463753652 117.4841613528585 133.86268515645264 117.13149370584483 C 133.1401245332837 116.80676076863767 132.42832167653563 116.49494682828666 131.7294216880585 116.18313288793566 C 131.02836046914572 115.87991548357013 130.35526621721027 115.5573437767982 129.66925296841856 115.28638354310993 C 128.97894951592696 115.03047127954244 128.30371016214139 114.77455901597503 127.64350264989137 114.52940451882836 C 126.97685983209136 114.28641125211719 126.34247418496834 114.02404755441432 125.69516954098944 113.81760166208026 C 125.05002612744559 113.62620373986717 124.41778558217287 113.43482194623947 123.80275423745624 113.24773035631182 C 123.18986799458992 113.06063876638417 122.58988461999415 112.88214371244192 122.01140064965473 112.70795499078511 C 121.42002993963006 112.57247487394093 120.84369107114075 112.43699475709676 120.28886773549308 112.30796607438803 C 119.17062452821253 112.07571444551229 118.15129793481357 111.7746421429968 117.17067994622704 111.64777469072341 C 116.19865849362611 111.50374642364982 115.30621548108564 111.37036302289967 114.49978621415602 111.24778577432633 C 113.70195348321198 111.10149950530526 112.97079632405766 111.07359705266953 112.34070088063487 111.02413068143609 C 111.71276666764749 110.98332536052942 111.17944273625616 110.9446167557168 110.74719664918184 110.91010158309226 C 109.8848657054686 110.84994195977927 109.42250754956724 110.81768478910212 109.42250754956724 110.81768478910212 C 109.42250754956724 110.81768478910212 109.87410793904779 110.91235958503964 110.72355214307538 111.09509645692586 C 111.14504046372889 111.187513250916 111.6676066286994 111.2993972474098 112.2783477697158 111.43487736425398 C 112.88907278214688 111.5639060469627 113.59227910290957 111.69507983152153 114.35999976502659 111.94668576280358 C 115.12772042714359 112.17893739167933 115.97716463117118 112.43054332296137 116.9040260448242 112.70795499078511 C 117.83087132989176 112.95956092206717 118.79213501607188 113.40040354512689 119.8351222441626 113.77458672498229 C 120.35123697499765 113.97458118318079 120.88456090638878 114.17888197366472 121.43507790975092 114.38963419828413 C 121.97054694299219 114.63907889913085 122.51891884450438 114.89499116269826 123.08449994657268 115.15735486040113 C 123.64791981820575 115.41541222581864 124.22424255810975 115.6842112290716 124.81562939671991 115.9594777950454 C 125.4005648011948 116.23903456471916 125.97688754109862 116.5809605738974 126.5768709156942 116.89924207696919 C 127.17254795800442 117.22395888559105 127.78114399717087 117.55512712834837 128.40262677602297 117.89276293382646 C 129.0155130188893 118.23683404485463 129.6176414953352 118.64112929353715 130.2412855046225 119.02176390752793 C 130.85847807977436 119.40668872521874 131.49071862504707 119.80238743791577 132.12724937402024 120.20021512387753 C 132.74658705102203 120.63031610910173 133.37023106030935 121.07331996259687 134.00892303971756 121.52061401979208 C 136.5572395232154 123.27971043691633 139.08834680615664 125.36136243222711 141.6431147237896 127.56346270284652 C 144.16348036889548 129.82575485394958 146.69889398412224 132.2213981486321 149.1439875214528 134.8084232369423 L 149.17834140822418 134.84922855784896 C 142.17853537127496 139.42544046172375 134.81961025317682 143.0102927391768 127.29078661712163 145.73710427661655 C 124.28011197772277 144.1607931171346 121.258695700488 142.61030382277963 118.24156962695349 141.14152194175006 C 114.48683496012919 139.29641177901505 110.7321002933049 137.58678173312424 107.07628224036218 136.00189016624208 C 105.24838127818347 135.19760600116248 103.4161739837194 134.48149681212905 101.65062613245959 133.74388821883917 C 99.85283723910811 133.0600362004829 98.10878879210482 132.36542641570568 96.38625587794299 131.74823384055372 C 92.93904494776973 130.5224613548207 89.65741007468232 129.44723308463816 86.5865274262143 128.59564377876043 C 83.52209621188157 127.72253894004106 80.67056232401838 127.07094409236194 78.14160014292709 126.55699059196232 C 76.87497395053151 126.32688406493659 75.685764967761 126.11184163661713 74.58685993430137 125.91399228026867 C 73.4836646971417 125.77206072928902 72.46433810374255 125.63658061244485 71.54823445651053 125.51614846572161 C 69.72247859618193 125.24089802833319 68.26445448157318 125.22368882777693 67.28383649298664 125.13122364803081 C 66.3032185044003 125.05816115644689 65.77636213572976 125.01945255163426 65.77636213572976 125.01945255163426 C 65.77636213572976 125.01945255163426 66.29247686656478 125.12477221389534 67.26019198688019 125.31407342001438 C 68.22360077491044 125.52911584833384 69.65151282069215 125.72265887239695 71.42136700423714 126.21727419897556 C 72.305213480792 126.44952582785132 73.28583146937854 126.70327686098338 74.35031810172558 126.98068852880712 C 75.40404696765182 127.3075665678644 76.53735427363873 127.66239544531348 77.75451409480085 128.04303005930424 C 80.16306025775421 128.85591076036926 82.85759849593151 129.83222241667033 85.73064791663636 131.05154346826788 C 88.60798754104142 132.24936511560918 91.67025752493856 133.68588982596162 94.85726598784444 135.2922969256854 C 96.45077021929747 136.0965649621797 98.06362875315672 136.98041143873456 99.71735712226383 137.85351627745393 C 101.34740872809408 138.78466789480683 103.02694283374305 139.6964652097535 104.7043157089568 140.6942923988962 C 108.05690022894852 142.6748826784754 111.48691808715114 144.78019530847786 114.91048451121812 147.02960071989537 C 115.7857183232021 147.5973269238138 116.66096826377158 148.19516519655943 117.53836330619099 148.7779393705988 C 81.15658111461167 158.36046416357277 42.69096956870068 149.74996082319973 22.130248979063026 137.2664357711291 C 28.618246617462546 156.16913778795958 56.75295088210348 166.96667730024578 87.47253513320442 182.65011368349315 C 85.24462912604324 182.8479630398417 83.03823865172387 183.02645809378384 80.88776598277325 183.20709824957612 C 77.7050638521529 183.4608492827082 74.62987487139935 183.6242802379441 71.70523010619644 183.81998449244264 C 68.77842411055809 183.9446584571099 66.0107588664556 184.06513898958923 63.45813605067258 184.18126480402708 C 60.89907792933937 184.22642484297518 58.55504610774031 184.2715848819232 56.47553921427965 184.30593876869438 C 54.39172598853344 184.37045311004877 52.58101809832573 184.29464875895735 51.08428537890434 184.29464875895735 C 48.088674838211645 184.26884302241567 46.37689969047079 184.24948872000937 46.37689969047079 184.24948872000937 C 46.37689969047079 184.24948872000937 48.0671754339553 184.5269003878331 51.026222471685486 185.00861284614086 C 52.50576211913588 185.23655814273116 54.303551012487375 185.58279048419476 56.37231626811271 185.83870274776226 C 58.447532957873335 186.116114415586 60.78724231860154 186.43007345778702 63.3420102362347 186.7741606974006 C 65.90539081843855 187.05371746707436 68.68379770037657 187.35693487143996 71.62136146243571 187.67520024592636 C 74.56105419775969 187.9246610753584 77.67064545104031 188.23218481200934 80.88776598277325 188.47088787502045 C 84.10488651450635 188.68807540519003 87.43811673209184 188.94829400104288 90.82082944949626 189.11603128856422 C 94.02074078067308 189.29881654620652 97.27010235449785 189.45150586360688 100.52162515875823 189.5869859804511 C 105.85267098506458 192.55679078460219 111.17939435050009 195.72444494510174 116.41150743433955 199.15660790515423 C 113.95567225917328 199.76518781573537 111.47832155116555 200.39528325915816 108.99666451087231 200.93720372653482 C 107.46981972262388 201.27698463386292 105.94082983252534 201.64686148143286 104.4182913765621 201.96728808635478 C 102.8936078187489 202.27695692485568 101.37106936278583 202.5887708652067 99.86357887694363 202.89413337142233 C 96.84001749785894 203.52422881484512 93.85300349315165 203.96507143790484 90.95414833590512 204.4897988333106 C 88.05316420539377 204.88117508513687 85.23817769190795 205.3134211722112 82.55868742385152 205.61663857657672 C 79.87703592535968 205.86824450785878 77.33302577414753 206.15855904395346 74.97610721286303 206.33060266376015 C 72.61917252299304 206.4575346303749 70.45579698577166 206.57361205905679 68.53757594569677 206.6746737747884 C 66.6128873429013 206.77999343704937 64.93767569812297 206.72193052983044 63.5527624608541 206.74563955027818 C 60.780790884466256 206.76289713659045 59.19589931758392 206.77144528681995 59.19589931758392 206.77144528681995 C 59.19589931758392 206.77144528681995 60.76143658205986 207.023051218102 63.49900588592061 207.4596036374617 C 64.87100012633323 207.65745299381015 66.5397764655614 207.99292756885293 68.46661017020699 208.20796999717237 C 70.3955889767027 208.42301242549183 72.57401248404494 208.66171548850295 74.95244657817128 208.92622428805586 C 77.33733210643288 209.14557304866074 79.92435719474318 209.2789080636549 82.6748132382894 209.472451087718 C 85.42097907813555 209.61438263869758 88.32196320864672 209.64878491122485 91.3369441803313 209.73695988727093 C 94.33469982287411 209.69389656441686 97.45935517486092 209.74986275554176 100.61194523665424 209.61873735673902 C 102.19040149798622 209.56067444952006 103.78390572943924 209.50261154230114 105.38386139502757 209.44238740464687 C 106.98167195876594 209.3714216291571 108.57732129206892 209.25745704515455 110.17942205950735 209.16497573682304 C 113.39439748939033 208.9972384493017 116.56850308402547 208.70692391320702 119.71894804396865 208.4682208501959 C 122.67801121028432 208.2123247152138 125.58760800536619 207.95210611936096 128.41978759082318 207.7005001880789 C 133.10352877315046 211.32406107034447 137.63458063807735 215.2271787222838 141.93768720641364 219.45501318284508 C 140.7635261937642 219.7496340512252 139.57860741469392 220.0528514555907 138.370044129517 220.3625202940917 C 135.49915593924757 221.1022901178169 132.53580256923203 221.86784954949857 129.525127929833 222.64418287618636 C 126.5295173891401 223.37534003534077 123.47798904307831 224.16886643399957 120.42860579886663 224.83550925179955 C 118.90392224105362 225.18174159326315 117.37493235095509 225.54947333898306 115.8502326645566 225.87419014760493 C 114.32340400489329 226.17956878240585 112.80515575263027 226.49138272275687 111.29552016493795 226.7967452289724 C 108.27410388770339 227.42684067239523 105.28494478114598 227.86984452589036 102.38825085433486 228.39886212499616 C 99.48294426295286 228.78378694268707 96.66582877620223 229.2160330297613 93.98848360999592 229.51925043412683 C 91.30897721335401 229.76656616170882 88.76282196029193 230.06117090150354 86.40804850085736 230.2289081890249 C 84.04896870913744 230.36003358782764 81.88559317191606 230.47191758432155 79.96735600325587 230.57728563233852 C 78.04482863089562 230.67841186241148 76.37176208796741 230.62034895519255 74.98684885069855 230.65034812392233 C 72.21058707061047 230.66486385072707 70.62567937514302 230.67405714437007 70.62567937514302 230.67405714437007 C 70.62567937514302 230.67405714437007 72.19123276820426 230.92137287195206 74.93309227576506 231.36436059686181 C 76.30510264476298 231.56006485136035 77.97171775355574 231.89768452825305 79.89639022776609 232.10627552243713 C 81.82753026469703 232.32562428304195 84.00595377203946 232.56432734605315 86.38224276431566 232.82883614560603 C 88.76496706214186 233.04818490621093 91.35629848273751 233.181519921205 94.10675452628372 233.37506294526813 C 96.85292036612988 233.51489778015375 99.75175939479111 233.55139676877496 102.76672423789022 233.63957174482113 C 105.76449600901852 233.59876642391444 108.88913523242002 233.65247461309195 112.04174142279862 233.51699449624778 C 113.62448788783065 233.45893158902885 115.21584701743357 233.4008686818099 116.81580268302189 233.344950876441 C 118.41361324676045 233.27398510095122 120.00926258006324 233.15785928651334 121.61352457793708 233.06970043905258 C 124.82633877738466 232.89980192109581 128.0025894738699 232.61164861543656 131.14874423011304 232.37078432199004 C 134.2690771212292 232.09767898645165 137.33566956599716 231.82457365091324 140.3076194719983 231.56006485136035 C 143.24302200362203 231.3084589200783 146.08381425364973 231.06544952478174 148.7762073899769 230.833197895906 C 149.90306326182832 230.76658683845756 151.00409726855278 230.68691162688492 152.0750353350353 230.62030056943658 L 152.2105154518794 230.78373152467248 C 148.92028404280657 231.94284456720115 145.4795245467688 233.34925720872644 141.9634929429555 234.9341649041939 C 137.08620873656514 237.13410394437787 132.06913808104514 239.6415505926275 127.12088809916497 242.1898670761251 C 122.20489528796196 244.74034479005812 117.2846122730589 247.2800486089849 112.67612706992148 249.67138557138207 C 108.07196432765487 252.030465363102 103.75164855876208 254.15727739736082 99.99905899378773 255.88197154195785 C 96.24648555739884 257.6087946598196 93.07021873232847 258.94854785814044 90.81437801536079 259.81734636457446 C 89.69182847579489 260.2710918559051 88.79507913096909 260.582905796256 88.18648309180263 260.8130123232817 C 87.57790318122146 261.036667416172 87.25533147444955 261.1549383324599 87.25533147444955 261.1549383324599 C 87.25533147444955 261.1549383324599 87.59511238177775 261.09897214133497 88.23594946303606 260.9893461467886 C 88.87464144244426 260.8775750503921 89.82085715850351 260.742046547792 91.01006614127402 260.50334348478077 C 93.4014031036711 260.0710973977065 96.80345399489643 259.3399402385521 100.85926096423633 258.3356616152739 C 104.91505180499072 257.3270927882958 109.61814728972439 256.0303545270729 114.61800874468793 254.55942754419328 C 119.5963707953955 253.07343646260745 124.90804619071014 251.48854489572528 130.21543138232474 249.90578230210787 C 135.5013010410977 248.34453524133207 140.76783252604955 246.85641518648148 145.66661613669646 245.6800929433966 C 150.56539974734298 244.50378682889703 155.09430651041976 243.66079405900481 158.82539667113778 243.29091721143485 C 159.9866548155165 243.1597918126321 161.05543165156377 243.09737418737174 162.04895250842105 243.06081068440915 C 164.59081755778308 246.08869452436448 167.2230026850413 249.09935303517824 169.94121768649566 252.09067337217095 C 167.7455688500118 252.74012311800007 165.49401833674438 253.4927796814108 163.18871124854323 254.3379175531531 C 160.67050683387276 255.28198816736221 158.10067481753345 256.31636273088213 155.5480681303357 257.48621741124634 C 152.98468754813186 258.630282483654 150.4492739329053 259.93992361314776 147.95256892249117 261.29256355115416 C 145.46876678034778 262.690379656694 143.03012467715251 264.1398072353172 140.7183661548163 265.7204085984993 C 138.40660763247968 267.294558527546 136.19376572402467 268.93751300164695 134.17016050734762 270.6708036822295 C 132.12074955412868 272.3675308598495 130.29715492423531 274.20833469029907 128.63483001914264 275.9803339756941 C 127.03056802126896 277.82544413842913 125.57685023894538 279.6103462920952 124.45430069937947 281.4188929518676 C 123.85431732478372 282.2898365601516 123.3683146627759 283.18873100682737 122.91455304285994 284.04032031270503 C 122.42855038085212 284.86395878019096 122.0995272399449 285.7284509543395 121.7511497966313 286.5026230505919 C 121.37911171862594 287.26603738042354 121.17697215857741 288.05096724309686 120.9296725595808 288.74557702787394 C 120.67590539786342 289.4294290462303 120.52968364318363 290.09392676218033 120.40065496047501 290.68100726850514 C 120.09098612197401 291.85300705071927 120.00281114592795 292.7970776649284 119.93399047228812 293.4357696443367 C 119.854476546569 294.074461623745 119.81576794175619 294.40993619878765 119.81576794175619 294.40993619878765 C 119.81576794175619 294.40993619878765 119.91899088792331 294.0873644920158 120.11467901383637 293.47447824914934 C 120.30393183419943 292.8701885422683 120.56627940331691 291.9755842992925 121.08024903230202 290.90895256509543 C 121.31250066117776 290.3670320977187 121.56410659245972 289.7735001572585 121.9339834400295 289.16492024667747 C 122.29526375161421 288.556324207511 122.61569035653602 287.8703270873046 123.10814445267913 287.2251836737609 C 123.57480894086603 286.56068595781085 124.01995789621111 285.82952879865644 124.62423147450691 285.14996698400023 C 125.1898125765754 284.44892189367295 125.7919410530209 283.7220549382186 126.49730860421883 283.02315494974135 C 127.83059423981902 281.5758724729681 129.48432260892633 280.19742679842 131.24985433160066 278.81465866300107 C 133.07991652421475 277.49642099752185 135.03255596540222 276.156667799201 137.1937864007735 274.9803616847014 C 139.32275966546763 273.7631857349539 141.61730898724792 272.6621517282295 143.98284021310332 271.6449702366805 C 146.34406510667333 270.62133731099607 148.8149643805456 269.73103940030575 151.2923150885535 268.9074170614052 C 153.78902009896763 268.1181808664465 156.29217654351703 267.3827173750066 158.79747808991675 266.8042495332527 C 161.2855865643453 266.1892020599508 163.7650823742033 265.7161022662139 166.1564193366002 265.30751681383134 C 168.55204650269732 264.92472096940514 170.86811135731946 264.6107619272041 173.05730875966782 264.42150910684114 C 175.2464900334311 264.2064666785217 177.30019119035006 264.11184026834013 179.17541342191228 264.064535127542 C 179.97108492242108 264.05647083487275 180.72375761441705 264.0596965519405 181.44846333943607 264.0693737031436 C 183.2247689571165 265.817712353847 185.03117051503907 267.5509869058442 186.87197434548852 269.27351982000596 C 185.23545517693753 269.79394088312625 183.58388803826583 270.3487642187738 181.8979186270665 270.9616504616403 C 179.37540788011086 271.9121563813996 176.80773709420677 272.9400956393695 174.25511427842375 274.1207080861545 C 171.69174982480519 275.2626119281268 169.1541911077285 276.5700918271852 166.6596311991645 277.92060279192685 C 164.17582905702113 279.31625766703127 161.73718695382584 280.76997544935466 159.42542843148942 282.34843171068667 C 157.1115086787176 283.92258163973327 154.9008118721127 285.56555224241976 152.87506155358554 287.30098802485224 C 150.8256667289519 288.9934088701868 149.00205597047324 290.8320675987864 147.34189229581597 292.6062119860315 C 145.7376302979423 294.45346725061654 144.27960618333336 296.2340630719971 143.1592017456174 298.0490772944903 C 142.56137960145705 298.92216600462433 142.07107060716388 299.8124639153147 141.62161531953325 300.6661983230424 C 141.13561265752543 301.49198189237836 140.80873461846835 302.35863529696223 140.4560508428694 303.1306461627793 C 140.08617399529925 303.89622172304627 139.88187320481552 304.6811515857196 139.63671870766882 305.369293807776 C 139.38296767453676 306.0531458261323 139.23672979127167 306.71764354208227 139.1055560067129 307.30903038069243 C 138.80019350049747 308.48104629149196 138.70987342260128 309.42724587896583 138.63890764711132 310.0659378583741 C 138.5635871535803 310.70033963408235 138.52278183267362 311.0401044128251 138.52278183267362 311.0401044128251 C 138.52278183267362 311.0401044128251 138.62390806274652 310.7110812719178 138.8216929047538 310.1025013613367 C 139.00878449468144 309.4939214507556 139.27329329423435 308.6036235400653 139.78510169278385 307.53697567728284 C 140.01520821980967 306.9950552099061 140.271120483377 306.40368449988125 140.64099733094693 305.79294335886476 C 141.00227764253128 305.1886536519837 141.31839791516794 304.50480163362744 141.81085201131106 303.8489165822482 C 142.28396793363322 303.1844188662982 142.72481055669294 302.4596970126939 143.33124536542417 301.7780062247729 C 143.89682646749247 301.07694500586035 144.49680984208823 300.34578784670595 145.20430636655095 299.65332316377874 C 146.53760813073626 298.19960538145546 148.19132037125826 296.82975624289276 149.95686822251807 295.4448430056238 C 151.78693041513202 294.1222990078592 153.73526352403414 292.78254580953836 155.8964939594054 291.60623969503877 C 158.02761232594963 290.3912249757266 160.32217777631524 289.29231994226694 162.6855477717352 288.2751545793033 C 165.0510789975904 287.24937655176876 167.52197827146304 286.35907864107844 169.99932897947076 285.5354401735925 C 172.4960339898849 284.7462201072192 174.99919043443447 284.0107566157794 177.50234687898387 283.4322726454401 C 179.99474555711265 282.8236927348589 182.46995116327045 282.3441253784013 184.86343322751765 281.9376850278687 C 187.25906039361476 281.554905312028 189.57298014638658 281.2387850393915 191.76216142014968 281.0473871171784 C 193.95134269391292 280.8366510211444 196.00720508126733 280.7398795091128 197.88242731282955 280.6947194701647 C 198.57056953488586 280.6866551774955 199.22861581670048 280.6866551774955 199.86516269425874 280.6947194701647 C 200.16623499677434 280.94201906916146 200.46083973656897 281.1893186681581 200.76405714093448 281.4409245994401 C 198.7297102864219 282.7849841300463 196.63944562654024 284.2343955800843 194.52123012826695 285.7849010030246 C 190.11059428147797 289.0385689091349 185.57954241655108 292.6814840938067 181.27427461777935 296.5566347787691 C 176.9733292798781 300.44255935873747 172.8616045051693 304.51770450189827 169.30257409284354 308.6036235400653 C 167.50046273862122 310.62076119402167 165.86824990235556 312.6787686832261 164.36077554509885 314.6443109926843 C 162.88123589764845 316.633497808249 161.53719249562744 318.5538800787592 160.40388518964053 320.3968451396442 C 159.84046531800746 321.31723899057624 159.29639974878063 322.1946340329957 158.83618669472938 323.06988397356514 C 158.35232913457168 323.9257796117282 157.92008304749734 324.7450956183434 157.5502061999272 325.54292834928754 C 157.1588138195158 326.32355187967534 156.8190490407729 327.0676119071007 156.54378247479917 327.7729794582987 C 156.2534679387046 328.4697343449258 155.9782013727307 329.1041199920487 155.7954161150884 329.7062484684944 C 155.5954216568898 330.2933289748192 155.41692660294774 330.81805637022495 155.25994708184732 331.28039839754103 C 155.13946654936785 331.7470628857279 155.03629198895698 332.1406003679895 154.9545845756315 332.4653171766114 C 154.78899238996019 333.1083154883051 154.70081741391414 333.4480802670478 154.70081741391414 333.4480802670478 C 154.70081741391414 333.4480802670478 154.84920039902934 333.1276697907114 155.13091839913832 332.5319766198158 C 155.26849523207665 332.2287592154503 155.44058723763933 331.8631887001658 155.64272679768803 331.4309426130915 C 155.8771396569992 331.0158895979881 156.1437935584022 330.53633837011574 156.44270463048218 330.0030144387245 C 156.72656773244148 329.4610939713478 157.10505724458213 328.89981920156475 157.50935249326466 328.28478785684825 C 157.8964385413909 327.65899874571085 158.34803893087144 327.0138553321671 158.86629876355641 326.3364547479463 C 159.35660775784976 325.6440061936044 159.91143109349724 324.9386386424065 160.52431733636377 324.21178781553743 C 161.11139784268858 323.47201799181227 161.78449209462406 322.7322642966723 162.47910187940116 321.9602373022699 C 163.87046655080547 320.42265087618586 165.47687365052946 318.8441946148539 167.22090596894745 317.23133608099465 C 168.9907440239073 315.642138181827 170.87456279145474 314.0013126809907 172.9261188465238 312.4142598836732 C 176.9840709177136 309.19930058237554 181.562444052024 306.0918544309449 186.25478177033668 303.21022460283996 C 190.9535870513701 300.3414815144205 195.80075918893345 297.74155355783944 200.40493805978534 295.5115024488282 C 204.70588339768662 293.44920475592374 208.7788995675826 291.7395747100329 212.3508328481793 290.4213209159684 C 216.07331034432664 293.1545838875437 219.89901078664053 295.81471985319376 223.83009540555713 298.3888420732331 C 223.50107226464974 298.68346294161324 223.17419422559266 298.9651809417224 222.84517108468546 299.2533342473817 C 220.84522650269997 301.05973580530406 218.83452415429366 302.962908875258 216.89049737767706 304.99082042422054 C 214.92495506821868 306.9950552099061 213.04329753110648 309.1412376751566 211.2175416707777 311.31751608064894 C 209.4197366488409 313.5260677854037 207.68430086640834 315.76900563410044 206.11229603921163 318.0872317191577 C 204.53814611016517 320.4011353433442 203.08228322599183 322.7365545003724 201.83930153970235 325.093473061657 C 200.54901471261502 327.42029568269965 199.531833221066 329.8008748786759 198.63508387624017 332.06102192792895 C 197.81791297147504 334.3663451447153 197.1189968544126 336.5641229544639 196.74052347085723 338.65654884478096 C 196.50182040784583 339.68877830645084 196.37493682698732 340.70165346571446 196.2695687789703 341.6586108196092 C 196.1190890777612 342.60482653566834 196.13199194603197 343.52738161703587 196.0889286231781 344.3811160247636 C 196.02231756572957 345.2241087946558 196.12328250994912 346.03053806158545 196.14699153039695 346.7660015530252 C 196.1598943986677 347.4971587121797 196.2695687789703 348.1616564281297 196.36634029100193 348.76163980272537 C 196.51036855807536 349.9616065519166 196.77278064153438 350.87340386686327 196.94051792905583 351.49490277430056 C 197.1018037824416 352.11638555315255 197.18996262990237 352.4454086940599 197.18996262990237 352.4454086940599 C 197.18996262990237 352.4454086940599 197.1662536094547 352.10562778673176 197.123351572454 351.46693580732347 C 197.07819153350593 350.8282438279152 196.9943228897452 349.90354364469766 197.08028824959996 348.7229311979127 C 197.0948039764047 348.1358506915879 197.11464213637115 347.4885621761942 197.23947738689188 346.791807289567 C 197.3491517671943 346.0907460706544 197.39640852223624 345.3380733786583 197.61366056674717 344.54885331228496 C 197.80934869266022 343.7596332459116 197.95558657592534 342.9187855778694 198.26525541442632 342.06719627199175 C 198.53621564811468 341.2048653282785 198.82438508235933 340.30595475301743 199.22866420245654 339.39846377035616 C 199.93617685550458 337.5640952454567 200.97271264945985 335.67813137605907 202.10600382686127 333.744846237278 C 203.32103467475895 331.84383439775945 204.64786887622347 329.8825984205866 206.22847023940557 327.99232821890354 C 207.76176646178965 326.0805424843788 209.49505714237213 324.2160780192375 211.3208130027007 322.4010799253297 C 213.14440763259407 320.5817754991364 215.11640137618775 318.8527911508393 217.1184910600232 317.1754182756257 C 219.15285404312124 315.53030257108924 221.21300663417588 313.92605670180086 223.3269319287491 312.4680325871921 C 225.4193416904807 310.98420273604154 227.55262128746037 309.62940156759976 229.62567674678556 308.37782334532506 C 231.48368977779148 307.28107954230074 233.29868787169946 306.25959171846625 235.0577842888236 305.35639093950505 C 237.0663254067945 306.53271318259004 239.09852715945732 307.69181009653335 241.15438954681156 308.82297230067013 C 239.50066117770425 310.3433495261979 237.8426426048969 311.92180578752993 236.2340904033232 313.6013237645936 C 234.26854809386498 315.60557467886446 232.3890356586027 317.75175714411495 230.561134696424 319.9237292173219 C 228.76549090492244 322.1322809220767 227.03005512248984 324.37952510305877 225.4559051934434 326.6934287272453 C 223.8817552643966 329.00734848001724 222.42587625163796 331.3470739693307 221.18289456534865 333.7039925306153 C 219.89476896869655 336.0308151516581 218.87328114486218 338.41139434763437 217.9786930304718 340.67584772917274 C 217.16365109897126 342.97684848508834 216.46260600864417 345.17033609113696 216.08411649650336 347.267052185154 C 215.84541343349233 348.2992816468239 215.71852985263345 349.30786660238743 215.61316180461657 350.2648239562821 C 215.4626821034075 351.2131847741914 215.47332696973086 352.1378849574089 215.4325216488242 352.9873291614366 C 215.3680073074699 353.83461213502886 215.46687553559542 354.6410414019585 215.4926812721371 355.36790835741283 C 215.50558414040802 356.1033718488526 215.61316180461657 356.7700146666527 215.7120300327419 357.3721592716837 C 215.8518648676276 358.57212602087503 216.1163252814246 359.4839233358216 216.28406256894584 360.1054061146736 C 216.44534842233182 360.72259868982553 216.53352339837787 361.05162183073287 216.53352339837787 361.05162183073287 C 216.53352339837787 361.05162183073287 216.50981437793024 360.70969582155465 216.46900905702356 360.0774552762818 C 216.42175230198143 359.4387632968736 216.33998037431476 358.5140631136561 216.42175230198143 357.33345066687104 C 216.44110660438784 356.74637016054635 216.45836419070002 356.09906551656724 216.58094143927335 355.39802042623995 C 216.6949705376172 354.6969592073274 216.74222729265932 353.94428651533127 216.95512461912884 353.1593727812433 C 217.1508127450419 352.3701365862847 217.29919573015692 351.52930504682786 217.6088645686579 350.67340940866467 C 217.87982480234626 349.81107846495155 218.17013933844086 348.9121678896904 218.57228948527327 348.0089671107292 C 219.2819472401714 346.1703083821297 220.31632180369127 344.2886508450174 221.45177421152826 342.351059373951 C 222.66678893084048 340.4500475344324 223.99149415904054 338.49095665910966 225.57209552222264 336.6028315592766 C 227.10537561602123 334.6867556210518 228.83866629660372 332.82659748819594 230.6644221569325 331.01159939428806 C 232.48587168497573 329.19229496809487 234.46001053041934 327.4590042875123 236.46426144469018 325.78163141229874 C 238.49646319735302 324.1365157077622 240.55661578840727 322.5322698384738 242.6705410829807 321.074245723865 C 244.76509594656224 319.5904158727146 246.89406921125655 318.23775980612277 248.9714310028671 316.98618158384795 C 250.25957272810467 316.2227672540164 251.5219087168002 315.5044968345475 252.76058407080416 314.8335476844621 C 255.07234259314055 315.95395212217807 257.41421318430423 317.0506959252024 259.7840346138596 318.1130374556995 C 258.85288299650676 319.0076255700898 257.92818281328925 319.9237292173219 257.01853060019255 320.8763963675165 C 255.05298829073433 322.87634094950204 253.17347585547208 325.0225072861671 251.3477199951433 327.2009469220949 C 249.5499149732065 329.40733739641433 247.8144791907739 331.6545815773964 246.24032926172728 333.9728076624537 C 244.66617933268066 336.28242108294006 243.2081552180719 338.6178402399683 241.9651735317826 340.97906513353826 C 240.6770479351305 343.3058716259956 239.65772134173153 345.6864508219719 238.76311709875586 347.9466139998102 C 237.9459300654054 350.2519210880113 237.24703007692824 352.4454086940599 236.8663954629373 354.5399796862269 C 236.62769239992627 355.57004791746135 236.50511515135292 356.582923076725 236.39544077105052 357.53989655920503 C 236.2470577859353 358.48395104482887 236.25996065420625 359.41295756033185 236.21694571710827 360.26240176435954 C 236.15033465965973 361.1096847379518 236.25129960387946 361.91180767259596 236.2750086243273 362.6472711640358 C 236.2895243511319 363.3784444517755 236.3954891568064 364.0450872695756 236.4943573849321 364.64292554232117 C 236.63628893591167 365.8428922915125 236.90079773546458 366.75899593874453 237.06638992113588 367.38047871759653 C 237.22982087637178 367.99767129274846 237.3158507505679 368.32883953550584 237.3158507505679 368.32883953550584 C 237.3158507505679 368.32883953550584 237.29439973206763 367.9890586281776 237.25133640921342 367.34607644506934 C 237.2061763702655 366.7095295675111 237.1223077265048 365.7848293842936 237.2061763702655 364.60421693750857 C 237.2255306726719 364.0171364311838 237.2427882589841 363.36983178720476 237.36746222365147 362.67307690057754 C 237.47713660395385 361.97417691210035 237.5243933589958 361.2193591182542 237.74164540350677 360.43442925558094 C 237.93733352941982 359.6430640873575 238.0835714126849 358.8043776497507 238.395385353036 357.94633690973757 C 238.66420048487427 357.0861349392891 238.95451502096884 356.19154682489875 239.35879414106606 355.27973338136667 C 240.06416169226418 353.4453809850526 241.10068135763413 351.559417115655 242.23613376547095 349.6261319768739 C 243.45330971521858 347.72295890692 244.77585371298306 345.7617229297471 246.35645507616516 343.8757590603495 C 247.88975129854904 341.96613455626004 249.6208807486963 340.1016700911189 251.448781710875 338.2866558686256 C 253.27239246935366 336.4673514424324 255.24653131479727 334.7319156599999 257.2486209986329 333.05670401522156 C 259.28082275129555 331.4094270802498 261.3409914709355 329.80518121096134 263.4570618673586 328.3493021982026 C 265.5494716290904 326.8654723470521 267.67844489378456 325.5128162804604 269.75580668539527 324.25694785448553 C 270.42030440134533 323.8634103722238 271.0762055813098 323.4849208600831 271.732090632689 323.1150440125131 C 273.15140614248514 323.66556101587537 274.57933431685194 324.21178781553743 276.01800412905453 324.7408054146433 L 275.7255283625245 325.0311199507379 C 273.7600021816516 327.03751596685885 271.8783285159541 329.17939209982393 270.05471775747543 331.35567050531625 C 268.2547676336885 333.56420608148574 266.5171867494058 335.8114663910532 264.94948825449467 338.1275312456751 C 263.37103199316266 340.43714466616154 261.91516910898935 342.77685402688985 260.67218742269984 345.1359338186098 C 259.3840456974626 347.4627564396524 258.36257400221336 349.84548073747874 257.47013098967307 352.10562778673176 C 256.65294395632264 354.40664467123275 255.9540439678453 356.60227737913135 255.57340935385471 358.69899347314833 C 255.3347062908435 359.73122293481833 255.20996781183496 360.7398078903818 255.10245466196778 361.69676524427655 C 254.95197496075872 362.64298096033576 254.9669745451237 363.5676811435533 254.9218145061756 364.41927044943094 C 254.85520344872705 365.26871465345863 254.9561683929466 366.07514392038826 254.97987741339443 366.80415597769263 C 254.99713499970662 367.53100680456157 255.1068093800092 368.20411718508245 255.19922617399942 368.7997942273927 C 255.34325444107284 370.0062124107194 255.607811626382 370.9180097256661 255.77554891390324 371.535202300818 C 255.93897986913933 372.1523948759699 256.0228485128998 372.4835631187272 256.0228485128998 372.4835631187272 C 256.0228485128998 372.4835631187272 256.0013974943994 372.14378221139907 255.9604308876394 371.5050902319908 C 255.91091613065007 370.87070458486795 255.82704748688934 369.9416980693651 255.91317413259745 368.76323072443006 C 255.9325284350037 368.17400511625533 255.94978602131604 367.53100680456157 256.070105267942 366.82565538194893 C 256.18413436628583 366.1289004953217 256.22929440523376 365.3762278033257 256.4485786514973 364.5870077369523 C 256.6421216755605 363.80207787427906 256.7883595588254 362.9612463348222 257.10017349917644 362.1053506966591 C 257.3668435291648 361.245164854796 257.6593031671095 360.3462704081201 258.063598415792 359.4387632968736 C 258.7710949402548 357.602249670124 259.80763073420997 355.7205921330118 260.9409380401969 353.7851618923807 C 262.158097861359 351.8819888224268 263.4828030895591 349.92504304895397 265.06124322230585 348.034772847271 C 266.5966845465398 346.1186969090462 268.3256688948369 344.2542324439049 270.1557310874509 342.43923434999704 C 271.9814869477797 340.62638135793924 273.949174359088 338.8909455755067 275.9512640429234 337.2157178021431 C 277.9877721278714 335.5641506634712 280.04577961707594 333.9641949978829 282.16185001349925 332.506170883274 C 284.0650230834531 331.1578211489678 285.99185678809886 329.92775845953463 287.88857842391724 328.77295174929145 C 291.3357893540907 329.8524863517594 294.84106319148316 330.86966784330843 298.39580340010883 331.8180286612177 C 297.65604970496895 333.0609942189217 296.96789135432715 334.3383781777382 296.3958588181234 335.65232563951724 C 294.46688001162767 339.86080579767224 293.18735095096116 344.3553102882218 292.22608726478103 348.8197027099443 C 291.29708074927805 353.2840951316667 290.69279104239695 357.73343958326814 290.3637679014897 361.8860019360542 C 290.20033694625386 363.96552495810033 290.0777596976805 365.97406607607127 290.0218418923116 367.8686426100397 C 289.95297283291586 369.7653642458582 289.9400699646449 371.55455660322434 289.95297283291586 373.2061237418962 C 289.9766818533635 376.5071129173898 290.14220952469344 379.24252099081514 290.3013502762293 381.1435328303337 C 290.3702193356252 382.09834508237844 290.4540879793859 382.8445663402391 290.50994127041326 383.35422963693856 C 290.5659074615385 383.861747831788 290.5938099141742 384.13054683504106 290.5938099141742 384.13054683504106 C 290.5938099141742 384.13054683504106 290.6304218028928 383.861747831788 290.6949361442471 383.35422963693856 C 290.7638052036428 382.8488726725244 290.8605122013331 382.1112479506493 291.01320151873347 381.16933856687547 C 291.30996748896354 379.3005838980341 291.7938250491214 376.6382867019487 292.5335948728466 373.4921319457054 C 292.9077780527021 371.92014324709413 293.33141147520536 370.22341606947424 293.8324782359195 368.4514167840791 C 294.32278723021267 366.67941749868396 294.8969648682666 364.82356569811344 295.52489908125415 362.92898916414504 C 296.7721870998288 359.135545892508 298.32912782831914 355.191574533906 300.11186875154976 351.458339271338 C 301.9096737734867 347.73155544290546 303.9655361608411 344.20047586897135 306.1848295034314 341.4371169571543 C 307.2600577736138 340.01564021692275 308.42347714842793 338.8823490395212 309.49656031676057 337.9167790210557 C 310.5889977874994 336.98346617326735 311.6384364497256 336.3340325560236 312.5351857945514 335.90393157079933 C 313.04484909125097 335.6996307803154 313.49644948073154 335.5469575915003 313.9050349331141 335.4458797471833 C 318.21244783373595 336.31682335546736 322.5929716116977 337.08454401758434 327.0487674974346 337.7576382695198 C 326.2100810598278 339.8522092616868 325.43590896357534 341.9940853946519 324.78431411589617 344.18326666841506 C 324.0187385556291 346.6283602057457 323.3994008786273 349.1229201143098 322.81662670458786 351.6088673583031 C 320.57581782915594 361.57204289385317 319.61026393927574 371.53950863310337 319.37801231040004 379.01026936193944 C 319.31559468513973 380.8747338270807 319.3026918168688 382.58436387297155 319.31994940318117 384.1004508947992 C 319.32478797878264 385.6143766861916 319.38010902649404 386.932630480256 319.43607521761885 388.0164714150095 C 319.48978340679645 389.10031234976293 319.55429774815076 389.9432889910698 319.6145541429758 390.5196278595591 C 319.66406889996534 391.098095701313 319.6940680686951 391.405619437964 319.6940680686951 391.405619437964 C 319.6940680686951 391.405619437964 319.7284219554663 391.098095701313 319.7993877309561 390.52391806325915 C 319.8595473542691 389.94759532335524 319.98002788674825 389.1132152180338 320.1499102761198 388.04872858568666 C 320.3219538959264 386.99069338747495 320.53915755468125 385.70685799452303 320.846665162747 384.24452754762893 C 321.14343113297707 382.7821971007347 321.5068726749968 381.1435328303337 321.95416673219205 379.3629370089531 C 323.69819905061007 372.2534565917015 326.6916644894528 362.92468283185957 330.69371488385923 354.26256801840304 C 331.7173316809584 352.11638555315255 332.7495611426281 349.98741228845836 333.88501355046515 347.9917740387583 C 334.98606368577487 345.9767653580666 336.1731275666951 344.09510782095435 337.36019144761565 342.35536570623634 C 338.11715434331165 341.28012130746845 338.8805848017286 340.2780039146257 339.6461442334104 339.35330373140806 C 347.16851643532993 340.1253145972252 354.886592891748 340.61347848966835 362.8089540100645 340.77690944490433 C 362.66702245908493 341.8392509754014 362.54013887822646 342.9015925058985 362.43477083020923 343.972530572381 C 361.989621874864 348.94658629080294 362.0111212791207 354.07117009619 362.2326151415752 359.13123956022264 C 362.69927962976215 369.232040314467 363.96376072030796 379.06617103872304 364.9142666400669 386.42511228540656 C 365.3873664338041 390.10242974260575 365.7873553502009 393.1604095228028 366.0647670180248 395.3065919880533 C 366.31208274560686 397.4527583247185 366.4540142965864 398.67638570860146 366.4540142965864 398.67638570860146 C 366.4540142965864 398.67638570860146 366.57223682711833 397.446306890583 366.77873110520846 395.2915278893471 C 366.9550649287153 393.13674888811113 367.20667085999725 390.06157603594306 367.5141945966481 386.3605979440522 C 368.1184843035294 378.9887538290978 368.94641297471503 369.1438653384208 370.53346577203274 359.6150971203804 C 371.331298502977 354.8603901625633 372.33127079396957 350.18095531252146 373.6000420882152 346.0993426066399 C 374.2215409956526 344.1445580636024 374.8881838134528 342.3231085355592 375.61934097260695 340.75541004064803 C 382.1137900451423 340.5876727531266 388.42974406373503 340.1812324025941 394.5951699953628 339.574797593863 C 394.7350048302485 339.84361272570135 394.8768718668865 340.11671806123974 395.01665831601633 340.4070325973344 C 395.72200973862897 341.9704247599602 396.4230709575413 343.7596332459116 397.005845131581 345.7488200614763 C 397.6208926048827 347.7165074727845 398.13270100343203 349.8583836057496 398.61441346174 352.0626289782191 C 399.0681589530707 354.27976109037394 399.50255014199473 356.57002020845414 399.8466373816087 358.8882462935114 C 401.2917586279465 368.16969878396986 401.96270777803187 377.77159400793556 402.5089184491085 384.954185302527 C 402.7691370449615 388.54977921781546 402.9970823415517 391.55185732122897 403.17772249734406 393.65286361894607 C 403.3583626531364 395.74743461111314 403.4916976681302 396.9495464621544 403.4916976681302 396.9495464621544 C 403.4916976681302 396.9495464621544 403.618629634745 395.74743461111314 403.8959767882276 393.66576648721696 C 404.164791920066 391.58625959375615 404.5884414711546 388.61645478960514 405.10455620198945 385.042360278573 C 406.1131250289678 377.8941712565088 407.5367468710493 368.35895160433296 408.15392331761586 358.52696598192694 C 408.32166060513725 356.07325978002547 408.3969327129124 353.5873125360322 408.43133498543966 351.11855836400986 C 408.43617356104147 348.64336888643743 408.3969810986687 346.1832112504005 408.19263192242863 343.73811771306987 C 408.0656999558139 341.81775157114504 407.80985220658755 339.89951440248484 407.4657810955597 338.00924420080185 C 407.796949338317 337.9576327277184 408.13242391335984 337.9124726887703 408.4614470542667 337.86086121568684 C 409.88076256406305 339.15114804277414 411.30007807385937 340.49949777708053 412.6935878471138 341.9360224874329 C 414.4698773362089 343.7918904165887 416.2354251874686 345.7337720913553 417.8848472242901 347.7788767122889 C 419.5665103032039 349.80246580038073 421.12346716028 351.9292939632249 422.6029906791447 354.07117009619 C 424.0631598956036 356.22164276514053 425.4201222944806 358.40008240106823 426.61363760953685 360.5806671388459 C 427.22652385240315 361.6602017413139 427.755541451509 362.76125187662365 428.3060584548711 363.8278836108208 C 428.7899160150292 364.91603087785955 429.3361428146911 365.9697597437859 429.73827683293797 367.0321012742829 C 430.17482925229785 368.08583014020917 430.59201124066584 369.1202208323145 430.9274858157087 370.1438376294136 C 431.3059753278495 371.15671278867717 431.58983842980865 372.1523948759699 431.8629437653469 373.11794876585003 C 432.40917056500916 375.04692757234574 432.7575480083226 376.8554903607034 432.9941059694839 378.4769454305482 C 433.1983906313823 380.0984005003929 433.3338707482266 381.5392315430307 433.3123713439703 382.7241341935158 C 433.3554346668245 383.91335930487156 433.2672113050222 384.84451092222446 433.2155998319388 385.48320290163275 C 433.1660850749493 386.1262012133264 433.1402793384074 386.46596599206924 433.1402793384074 386.46596599206924 C 433.1402793384074 386.46596599206924 433.22850270020973 386.13910408159734 433.3961916019749 385.51760517416005 C 433.5682352217815 384.89612239530805 433.83703422503464 383.9843250803614 434.02198071311255 382.7821971007347 C 434.2714415425444 381.58868178567883 434.42196962950936 380.1156097009492 434.5273376775266 378.4145761910438 C 434.6068516032457 376.7135588097239 434.6026581710576 374.7781285690928 434.4220180152652 372.66850960680483 C 434.3296012212752 371.61907094457865 434.23278132348787 370.5137306055689 434.0435285031248 369.3933261678529 C 433.89724223410377 368.2535674277306 433.67365165555464 367.0987607174873 433.42635205655824 365.9074066328669 C 433.2155998319388 364.7009884495401 432.8629160563398 363.5117633381844 432.5683113165452 362.25589491220956 C 432.2113212086607 361.0387189624619 431.87155642991763 359.7656413359308 431.4522132111146 358.5054504490852 C 430.63288107591404 355.9721980642939 429.645811653192 353.3980758442545 428.53616498189706 350.8239536242151 C 427.41145421189543 348.2605730420113 426.1856817261624 345.68216061827184 424.80723605161427 343.1746978414369 C 423.46317652100817 340.650041992631 421.968605032022 338.202787224865 420.4353088096381 335.8157565947533 L 420.42724451696864 335.8109180191517 C 423.0228661412644 335.3077061565876 425.58839182531835 334.7786885574818 428.1302568746806 334.21525255726334 L 428.6377589409447 334.5507271323061 C 430.510836070657 335.8496266239643 432.44841141313793 337.2323786307979 434.3214724142645 338.7678199550319 C 436.2117426159476 340.27960064457415 438.0547076768329 341.91826491497517 439.8353034982132 343.63650762543676 C 441.6373987238502 345.34183133904224 443.297578527093 347.17403863350626 444.91043706095223 349.01700369439124 C 446.4587812534572 350.8943710278034 447.9684168411493 352.7889314331865 449.2436395695303 354.73297433838843 C 449.9210401537513 355.6920767941332 450.47586348939893 356.6855976509905 451.0844433999801 357.64040990303516 C 451.6048644631005 358.627479325757 452.1962513017105 359.5715499399662 452.6349488229205 360.5457164944172 C 452.8693455536459 361.02957405457494 453.09945208067194 361.5048189501619 453.3273973772622 361.9736285401988 C 453.54460103601684 362.4531797680712 453.72524119180923 362.9284407922435 453.91878421587217 363.395089151845 C 454.3359662042401 364.3262568977833 454.6284419707703 365.2552634132862 454.93594957883585 366.14985152767656 C 455.2585212856078 367.0358592346669 455.42625857312925 367.9218508130718 455.6714130702759 368.75408581654307 C 455.8800201930452 369.59277225414996 455.99398477704784 370.3992015210796 456.1488191962983 371.16477708134653 C 456.35957142091775 372.6894606391596 456.5015029718969 374.05071324173684 456.49074520547646 375.1668113471675 C 456.5488081126951 376.29795742271904 456.44348845043413 377.17965879742377 456.4089732778094 377.7839485043049 C 456.3681679569031 378.392528414886 456.34655565254934 378.71940645394324 456.34655565254934 378.71940645394324 C 456.34655565254934 378.71940645394324 456.43042429630987 378.40543128315693 456.5938552515458 377.82265710911753 C 456.75078638689047 377.22912516865733 457.0282625690555 376.3646329945088 457.20029006027715 375.2291805866718 C 457.4432994555737 374.1001796129704 457.58092467426775 372.70236350743056 457.68200251858474 371.08090843758583 C 457.68200251858474 370.2744791706562 457.73796870970955 369.40137433193684 457.6949053868557 368.48957701699015 C 457.6195848933243 367.58206990574365 457.62829432940714 366.6079033512926 457.477701728101 365.61223739258526 C 457.34657632929816 364.6122651015925 457.2325472309543 363.56282643936635 457.002456832514 362.5005010374546 C 456.89278245221124 361.9628707737779 456.80030114388 361.41666010270114 456.6734336916064 360.86612697075367 C 456.5358568586683 360.31560996739154 456.3938607933475 359.7650929640293 456.2497841405175 359.20165696381093 C 455.98527534096496 358.0597531218385 455.57452865814696 356.9501064505434 455.2261512148332 355.77165523419376 C 454.79606635819425 354.6318964940715 454.4025288759328 353.43623607716563 453.8950106810833 352.2728167023516 C 452.94450476132397 349.9073016050816 451.75527964996803 347.56326978348255 450.49079855942256 345.19989978806257 C 449.1725608939432 342.87738349930527 447.7704545847034 340.52906147400614 446.20706242207774 338.299010364995 C 444.66300843327303 336.0517661840128 443.02005395917166 333.86258491024967 441.28890838043935 331.7916745527744 C 441.116880889218 331.57877722630496 440.9362407334257 331.38523420224186 440.7598907813335 331.1744819776226 C 444.02862278615004 330.3185863394594 447.2457433178831 329.423998225069 450.4198327839326 328.4992819132662 C 452.4498894347455 329.73366706357 454.5315575586414 331.0562110613346 456.5831136137102 332.5056225113725 C 458.69487767784824 333.9636466259813 460.75288516705274 335.5636022915697 462.7850869197154 337.2151694302416 C 464.7936280376863 338.89039720360523 466.76347667943 340.6258329860377 468.5870713093234 342.4386859780955 C 470.4128271696522 344.2536840720034 472.14397274838456 346.11814853714463 473.6815591744683 348.0342244753695 C 475.26001543580065 349.9244946770525 476.5825594335651 351.8814404505253 477.8018804851629 353.78461352047924 C 478.9351716625643 355.72004376111033 479.97170745651954 357.6017012982225 480.67922010956755 359.438214924972 C 481.08135412781485 360.34572203621866 481.37166866390925 361.2446164828944 481.6404837957477 362.1048023247576 C 481.9501526342487 362.9606979629207 482.0985356193639 363.8015295023775 482.29636884712704 364.58645936505076 C 482.51357250588177 365.3756794314241 482.5565874429797 366.12835212342026 482.6684069251322 366.8251070100475 C 482.79098417370557 367.53045843266005 482.80824176001795 368.1734567443538 482.829692778518 368.76268235252854 C 482.9135614222789 369.94114969746346 482.829692778518 370.87015621296644 482.78243602347607 371.50454186008926 C 482.73727598452797 372.14323383949755 482.720018398216 372.4830147468257 482.720018398216 372.4830147468257 C 482.720018398216 372.4830147468257 482.8038870419765 372.1518465040684 482.96731799721243 371.5346539289164 C 483.1307650810336 370.91746135376457 483.39956408428674 370.0056640388179 483.53935053341615 368.79924585549117 C 483.64047676348906 368.20356881318094 483.7479415276002 367.53045843266005 483.7608443958711 366.8036076057911 C 483.78229541437156 366.07459554848674 483.8834216444444 365.2681662815571 483.821004019184 364.4187220775294 C 483.77374726414206 363.5671327716517 483.78665013241294 362.6424325884342 483.640363863392 361.69621687237503 C 483.5306894830896 360.73925951848037 483.4038059022307 359.72638435921664 483.16940917150487 358.6984451012468 C 482.78661332707884 356.6017290072298 482.0898584404516 354.40609629933124 481.27052630525105 352.10507941483024 C 480.3802283945609 349.8449323655772 479.35445036702646 347.4622080677509 478.07061497407443 345.13538544670814 C 476.8276494163706 342.7763056549882 475.36962530176186 340.43659629426 473.7933141422796 338.12698287377356 C 472.22347054551835 335.8109180191517 470.48803476308575 333.5636577095842 468.68593953744875 331.35512213341474 C 466.86018367712035 329.1788437279224 464.9828163437082 327.0369675949574 463.01727403424957 325.03057157883643 L 462.70546009389886 324.71445130620003 C 464.39788093923346 324.16822450653785 466.0795601467322 323.6134011708903 467.75477179151073 323.0564327333927 C 468.2171299474121 323.25428208974125 468.68593953744875 323.45427654793974 469.1654907653213 323.6693189762592 C 471.3073668982863 324.6004705936122 473.53741800729745 325.66495722595926 475.8233707930921 326.82836047218797 C 478.1071784770371 327.9960700507021 480.4425976340651 329.2670025753832 482.76942025510766 330.6497707108021 C 485.104839412136 332.0110233133793 487.41014650033736 333.5055948023653 489.6918090824318 335.0517938930202 C 491.9476497993995 336.6216374897814 494.1777009084106 338.2431086882114 496.26151413415664 339.96564160237307 C 498.37758453057984 341.6623687799931 500.33022397176745 343.46446400562996 502.1667214699314 345.2751718958378 C 503.9688328241541 347.10521795986654 505.6354479329465 348.9589407871723 507.0504571104576 350.8405983242845 C 507.7902269341828 351.763153405652 508.3902103087782 352.7308685259676 509.03320862047195 353.6448270713496 C 509.57082275556314 354.5953329911089 510.1923055344152 355.49424356637 510.62455162148956 356.42108885143756 C 511.08260344510575 357.34149883095506 511.5406552687216 358.2232002056599 511.852485337658 359.10488545177935 C 512.0245128288793 359.55003440712454 512.1922501164007 359.9758290600634 512.3556972002219 360.39088207516676 C 512.4782744487952 360.8188218299556 512.5944002632333 361.24031015060905 512.7126711795211 361.6424602974415 C 512.8223455598235 362.051045749824 512.9556805748177 362.44027689980027 513.035242886293 362.82307274422647 C 513.1041119456888 363.21444899605274 513.1707230031369 363.586487074058 513.2330922426415 363.9477673856426 C 513.2976065839957 364.309047697227 513.3600242092563 364.661731472826 513.4137323984335 364.9950448174333 C 513.4480862852049 365.32622918877604 513.4609891534758 365.6488008955479 513.480343455882 365.95630850361346 C 513.5061491924239 366.56919474648 513.5706635337782 367.1197278784275 513.5577606655072 367.59927910629983 C 513.527600210924 368.07668523232223 513.5017944743825 368.48527068470474 513.480343455882 368.812148723762 C 513.4395381349754 369.4852429756975 513.4179258306219 369.8422330835819 513.4179258306219 369.8422330835819 C 513.4179258306219 369.8422330835819 513.5061491924239 369.4960007421184 513.6652415582037 368.8465509962893 C 513.7491102019646 368.51752785538196 513.845881713996 368.1153938371349 513.9641526302838 367.63584260926245 C 514.0694722925448 367.16058158509014 514.1081808973572 366.59930681530716 514.1964042591596 365.97351770416975 C 514.2286614298367 365.65309109924794 514.2846276209616 365.32192285649063 514.3125300735976 364.96923908089167 C 514.3125300735976 364.616571433878 514.3173686491991 364.2466784577226 514.3205943662667 363.8638987418818 C 514.3254329418683 363.47895779560565 514.3254329418683 363.07896887920856 514.3286586589359 362.65962566040514 C 514.3205943662667 362.2424436720371 514.2576928834462 361.8144877886629 514.2189842786338 361.3650486296177 C 514.1781789577267 360.91989967427253 514.1307609168315 360.45754151837104 514.0856008778834 359.98444172463417 C 513.9973775160814 359.5134870327472 513.9049607220913 359.02962947258953 513.8081892100595 358.53932047829625 C 513.6490000727676 357.53504185501816 513.3415408504584 356.51786036346914 513.0340171138071 355.45122862927195 C 512.7501540118479 354.3673876945186 512.2835056522464 353.31794903229235 511.8835167358496 352.17604519032 C 511.38890140927066 351.096510587852 510.9265432533693 349.9288010093379 510.32655987877354 348.80625146977184 C 509.19110747093674 346.52244378582714 507.7846948294113 344.232184667747 506.22560899907126 341.931167783246 C 504.6385562017535 339.6581178657222 502.9074106230211 337.3571009812212 501.01068898720274 335.15716194103715 C 499.14193431836134 332.9228206283259 497.103281131563 330.78094449536087 495.02375810951725 328.6756318653583 C 492.9248969136502 326.6004151755977 490.7658115801286 324.56821342293506 488.5615823362447 322.6693466852665 C 486.6153943291927 320.9683131753612 484.64125548374875 319.36835750977275 482.68001950657606 317.8393676196742 C 485.2519966247653 316.9103611041712 487.7917004436921 315.9835158191037 490.3034695528126 315.0587995073009 C 496.2645946939562 316.85660452923776 503.24074009621387 319.51028906075237 509.7007707676363 323.1661071136951 C 511.71577944832814 324.31230115936756 513.7028211620427 325.53378344140054 515.5414798906424 326.86923030743606 C 517.4080894576334 328.18746797291516 519.1413801382162 329.61323491684675 520.709078633127 331.09920986984736 C 522.313324502416 332.57013685272693 523.6444811647511 334.1658023146153 524.8594958840633 335.74424244736196 C 525.4078677855753 336.5592843788624 526.0057060583209 337.33990790925026 526.4379521453952 338.16353024815083 C 526.6680425438356 338.5678254968333 526.9175033732674 338.961362979095 527.1218041637516 339.36994843147755 C 527.3153471878145 339.7763887820101 527.5045838795922 340.18068403069253 527.6895303676698 340.57422151295424 C 528.1002609219024 341.3548450433421 528.3067068142368 342.1612743102717 528.6056340149022 342.9182372059679 C 528.8658364821696 343.6795064339494 529.0077680331494 344.4257276918101 529.2013110572125 345.1267889107228 C 529.4658198567654 346.5439431900835 529.637863476572 347.8148757147646 529.6421536802721 348.87076581112626 C 529.7345704742622 349.93310734162327 529.6163479437303 350.76103601280926 529.6013483593655 351.33521365086324 C 529.5711879047826 351.91153639076714 529.5453821682406 352.21691502556797 529.5453821682406 352.21691502556797 C 529.5453821682406 352.21691502556797 529.6292508120011 351.9201490553379 529.7862464616871 351.36961592339037 C 529.9238232946252 350.81050238404276 530.2184925487614 349.9997667848277 530.3561177674555 348.9202321823597 C 530.5797728603459 347.84929411587717 530.6872860102131 346.52244378582714 530.7303009473108 344.97624469517234 C 530.6872376244569 344.2085240330553 530.7001404927279 343.3762890295839 530.603368980696 342.50320031944983 C 530.4657921477583 341.6494659117222 530.4184386212041 340.7097016297984 530.1625263576364 339.7763887820101 C 530.0549486934281 339.3011438864231 529.9410324951814 338.8237377604008 529.8313581148793 338.32697733197216 C 529.6979747141289 337.84526487366435 529.5238343782285 337.36140731350656 529.368999958978 336.8625017832279 C 529.0743790905976 335.84101395939354 528.6249399315525 334.86684740494246 528.2012903804637 333.8260214072871 C 527.2572358948399 331.81317395703076 526.1389765589736 329.70570009659286 524.7368702497338 327.71865838287835 C 523.3627147788859 325.7015207289219 521.7928711821246 323.7230755511928 520.0703382679628 321.84570821778055 C 518.3649984257725 319.9425351478266 516.496243756931 318.15334279046056 514.5715551541352 316.42866477444886 C 511.68776409559496 313.860993988545 508.6405420818187 311.5169621669459 505.5997715021777 309.3966015668225 C 509.793203690212 307.8547088084531 513.9178152046061 306.3601211908818 517.9693158416604 304.945112013371 C 521.4767509094883 306.5364550143886 525.0938442290333 308.5105938598323 528.4528963117456 310.8997857203793 C 530.1625263576364 312.1277033079624 531.8011906280374 313.450247305727 533.3387770541216 314.84806341126676 C 534.833364671693 316.27166912476304 536.2526801814889 317.75120877221343 537.4763075653718 319.3102946025538 C 538.6719679822778 320.87584799561506 539.7816146535728 322.46720712521795 540.6052531210588 324.0972587310481 C 541.0719014806605 324.8907851297069 541.3901668551468 325.7230201331782 541.7643500350022 326.5122401995516 C 542.0826315380742 327.31437926278113 542.3643334095979 328.1079056614399 542.6245520054506 328.88207775769234 C 543.0912003650521 330.43471215389724 543.4030143054033 331.90994546906234 543.5858156916307 333.2410860028124 C 543.6588781832148 333.91419638333326 543.721295808475 334.5442756981706 543.7836489193938 335.12275966850996 C 543.7965517876648 335.7098401748347 543.8094546559357 336.247454309926 543.8223575242067 336.73992453465456 C 543.8760657133839 337.72699395737646 543.7513917487167 338.490408287208 543.7470370306753 339.0258773204494 C 543.7126831439043 339.5548949195552 543.6954255575919 339.83445168922907 543.6954255575919 339.83445168922907 C 543.6954255575919 339.83445168922907 543.774939483311 339.565652685976 543.9276771864677 339.05813449112657 C 544.0567058691763 338.5420197602916 544.359923273542 337.8022499365664 544.5319507647632 336.8151805138445 C 544.6372704270246 336.3248715195512 544.751299525368 335.77866084847454 544.8760380043768 335.1808225757289 C 544.9513584979082 334.57224266514777 545.0308724236273 333.91848658703327 545.1190312710881 333.2152802662706 C 545.2501566698909 331.80457742104534 545.2889297890449 330.1917188871861 545.179190894401 328.41112306580544 C 545.0996769686818 327.52942169110054 544.9985507386086 326.604721507883 544.8501677534938 325.6477480254031 C 544.6544634989954 324.70583864162927 544.5060805138802 323.7037212487865 544.2093145436502 322.7188130565 C 543.7125541152216 320.70380437580826 542.9147375128626 318.6630060871601 541.9771183327889 316.58778939739943 C 541.0201609788943 314.5211853722096 539.8266456638385 312.4975801555323 538.5084079983592 310.4933453698468 C 537.1600582640529 308.5192065244031 535.6654706464814 306.5988242538929 534.0655149808935 304.76876206127884 C 532.8590967975666 303.39891292271614 531.5817128387498 302.1064809937787 530.2849745775272 300.85490277150393 C 531.9021394436717 300.3538360107899 533.5063853129602 299.8699784506321 535.1020507748483 299.40547519288066 C 538.3406707108381 300.24416163048744 541.6459500900316 301.2484402537656 544.8630706217647 302.48711560776945 C 546.9038689104127 303.2612877040219 548.8737014235712 304.1515856147123 550.7596814215541 305.12575216916326 C 552.667144695208 306.0913060590434 554.3982902739403 307.2138555986094 556.0283418797707 308.3837264075589 C 557.6541032819009 309.568629058044 559.03901651917 310.8997857203793 560.2733855408884 312.2567319906712 C 561.4410951194023 313.65238686577555 562.4453737426804 315.09321790841346 563.1421286293076 316.55338712487224 C 563.5335210097195 317.26735121205564 563.746418336189 318.01571757176634 564.0496357405543 318.7081661261082 C 564.2689845011591 319.41782388100626 564.4453183246659 320.1124336657834 564.6259584804583 320.76617361531254 C 564.7312781427192 321.44357419953343 564.8302592709424 322.0693633106709 564.9270307829739 322.6478472810101 C 565.0000932745573 323.2413792214703 564.9958998423697 323.7875898925471 565.0323504452346 324.28220521912573 C 565.1205738070369 325.28217751011846 564.9915451243282 326.05849470822096 564.9915451243282 326.6004151755977 C 564.9613846697449 327.14233564297444 564.9442883692859 327.42834384678366 564.9442883692859 327.42834384678366 C 564.9442883692859 327.42834384678366 565.0196088628173 327.1509321789598 565.1722497944618 326.6305272444248 C 565.296923759129 326.11010618130445 565.6044958815361 325.3531432856083 565.7421211002301 324.3359617940593 C 565.8216350259496 323.83705626378054 565.9528733248495 323.2736363921476 566.019532768054 322.6521374847102 C 566.0582413728664 322.02634837357283 566.1077561298563 321.3468026875019 566.1550128848983 320.624242064333 C 566.124852430315 319.89737510887863 566.1077561298563 319.11246137479066 566.0453385045959 318.2802263713193 C 565.901310237522 317.4737971043897 565.8388926122616 316.58349919369937 565.5915930132652 315.693201283009 C 565.191604096868 313.8910899287868 564.4453828390072 312.00943239167447 563.4755226168417 310.09764665714977 C 562.4368417210367 308.24179485657936 561.1809571664762 306.33431545433996 559.6605638123632 304.5795253695011 C 558.1358802545501 302.8268803865123 556.4477496129153 301.09789603821514 554.5875914800596 299.55171307614563 C 553.0241993174336 298.2248627460956 551.3661807446266 296.9689781915355 549.6608409024358 295.7840755410504 C 561.4540625020148 293.40349634507413 572.810747810819 292.61642138055083 583.997534601667 294.40992007020236 C 618.6352844748285 299.9517019925427 612.4010378695605 263.92689378026245 612.4010378695605 263.92689378026245 C 632.6671537194037 285.4058631189823 652.9332534406612 274.4943428941083 657.0879770238827 264.6193423346043 C 623.4910531483771 250.76380691353555 568.320549652555 44.6125354479313 443.3584155509902 15.206898658609362" id="imagebot_2"/>
 </g>
</svg>